<svg id="my-svg" width="1624.7578125" xmlns="http://www.w3.org/2000/svg" xmlns:xlink="http://www.w3.org/1999/xlink" class="erDiagram" height="1101.5" viewBox="0 0 1624.7578125 1101.5" role="graphics-document document" aria-roledescription="er" style="background-color: white;"><style>#my-svg{font-family:Arial;font-size:16px;fill:#2D2630;}@keyframes edge-animation-frame{from{stroke-dashoffset:0;}}@keyframes dash{to{stroke-dashoffset:0;}}#my-svg .edge-animation-slow{stroke-dasharray:9,5!important;stroke-dashoffset:900;animation:dash 50s linear infinite;stroke-linecap:round;}#my-svg .edge-animation-fast{stroke-dasharray:9,5!important;stroke-dashoffset:900;animation:dash 20s linear infinite;stroke-linecap:round;}#my-svg .error-icon{fill:#FFFFFF;}#my-svg .error-text{fill:#000000;stroke:#000000;}#my-svg .edge-thickness-normal{stroke-width:1px;}#my-svg .edge-thickness-thick{stroke-width:3.5px;}#my-svg .edge-pattern-solid{stroke-dasharray:0;}#my-svg .edge-thickness-invisible{stroke-width:0;fill:none;}#my-svg .edge-pattern-dashed{stroke-dasharray:3;}#my-svg .edge-pattern-dotted{stroke-dasharray:2;}#my-svg .marker{fill:#785663;stroke:#785663;}#my-svg .marker.cross{stroke:#785663;}#my-svg svg{font-family:Arial;font-size:16px;}#my-svg p{margin:0;}#my-svg .entityBox{fill:#F8E8ED;stroke:#B75C75;}#my-svg .relationshipLabelBox{fill:#FFFFFF;opacity:0.7;background-color:#FFFFFF;}#my-svg .relationshipLabelBox rect{opacity:0.5;}#my-svg .labelBkg{background-color:rgba(255, 255, 255, 0.5);}#my-svg .edgeLabel{background-color:#EDF4EF;}#my-svg .edgeLabel .label rect{fill:#EDF4EF;}#my-svg .edgeLabel .label text{fill:#2D2630;}#my-svg .edgeLabel .label{fill:#B75C75;font-size:14px;}#my-svg .label{font-family:Arial;color:#2D2630;}#my-svg .edge-pattern-dashed{stroke-dasharray:8,8;}#my-svg .node rect,#my-svg .node circle,#my-svg .node ellipse,#my-svg .node polygon{fill:#F8E8ED;stroke:#B75C75;stroke-width:1px;}#my-svg .relationshipLine{stroke:#785663;stroke-width:1px;fill:none;}#my-svg .marker{fill:none!important;stroke:#785663!important;stroke-width:1;}#my-svg [data-look=neo].labelBkg{background-color:rgba(255, 255, 255, 0.5);}#my-svg .cluster rect{fill:#FFFFFF;stroke:hsl(0, 0%, 90%);stroke-width:1px;}#my-svg .cluster text{fill:#000000;}#my-svg .cluster-label text{fill:#000000;}#my-svg .node .neo-node{stroke:#B75C75;}#my-svg [data-look="neo"].node rect,#my-svg [data-look="neo"].cluster rect,#my-svg [data-look="neo"].node polygon{stroke:url(#my-svg-gradient);filter:drop-shadow( 1px 2px 2px rgba(185,185,185,1));}#my-svg [data-look="neo"].swimlane.cluster rect{filter:none;}#my-svg [data-look="neo"].node path{stroke:url(#my-svg-gradient);stroke-width:1px;}#my-svg [data-look="neo"].node .outer-path{filter:drop-shadow( 1px 2px 2px rgba(185,185,185,1));}#my-svg [data-look="neo"].node .neo-line path{stroke:#B75C75;filter:none;}#my-svg [data-look="neo"].node circle{stroke:url(#my-svg-gradient);filter:drop-shadow( 1px 2px 2px rgba(185,185,185,1));}#my-svg [data-look="neo"].node circle .state-start{fill:#000000;}#my-svg [data-look="neo"].icon-shape .icon{fill:url(#my-svg-gradient);filter:drop-shadow( 1px 2px 2px rgba(185,185,185,1));}#my-svg [data-look="neo"].icon-shape .icon-neo path{stroke:url(#my-svg-gradient);filter:drop-shadow( 1px 2px 2px rgba(185,185,185,1));}#my-svg :root{--mermaid-font-family:Arial;}</style><g><defs><marker id="my-svg_er-onlyOneStart" class="marker onlyOne er" refX="0" refY="9" markerWidth="18" markerHeight="18" orient="auto"><path d="M9,0 L9,18 M15,0 L15,18"/></marker></defs><defs><marker id="my-svg_er-onlyOneEnd" class="marker onlyOne er" refX="18" refY="9" markerWidth="18" markerHeight="18" orient="auto"><path d="M3,0 L3,18 M9,0 L9,18"/></marker></defs><defs><marker id="my-svg_er-zeroOrOneStart" class="marker zeroOrOne er" refX="0" refY="9" markerWidth="30" markerHeight="18" orient="auto"><circle fill="white" cx="21" cy="9" r="6"/><path d="M9,0 L9,18"/></marker></defs><defs><marker id="my-svg_er-zeroOrOneEnd" class="marker zeroOrOne er" refX="30" refY="9" markerWidth="30" markerHeight="18" orient="auto"><circle fill="white" cx="9" cy="9" r="6"/><path d="M21,0 L21,18"/></marker></defs><defs><marker id="my-svg_er-oneOrMoreStart" class="marker oneOrMore er" refX="18" refY="18" markerWidth="45" markerHeight="36" orient="auto"><path d="M0,18 Q 18,0 36,18 Q 18,36 0,18 M42,9 L42,27"/></marker></defs><defs><marker id="my-svg_er-oneOrMoreEnd" class="marker oneOrMore er" refX="27" refY="18" markerWidth="45" markerHeight="36" orient="auto"><path d="M3,9 L3,27 M9,18 Q27,0 45,18 Q27,36 9,18"/></marker></defs><defs><marker id="my-svg_er-zeroOrMoreStart" class="marker zeroOrMore er" refX="18" refY="18" markerWidth="57" markerHeight="36" orient="auto"><circle fill="white" cx="48" cy="18" r="6"/><path d="M0,18 Q18,0 36,18 Q18,36 0,18"/></marker></defs><defs><marker id="my-svg_er-zeroOrMoreEnd" class="marker zeroOrMore er" refX="39" refY="18" markerWidth="57" markerHeight="36" orient="auto"><circle fill="white" cx="9" cy="18" r="6"/><path d="M21,18 Q39,0 57,18 Q39,36 21,18"/></marker></defs><g class="root"><g class="clusters"/><g class="edgePaths"><path d="M46.772,122L44.785,130.417C42.798,138.833,38.825,155.667,67.088,183.141C95.352,210.615,155.852,248.73,186.102,267.788L216.352,286.845" id="my-svg-id_entity-USER-0_entity-BILLING-1_0" class="edge-thickness-normal edge-pattern-solid relationshipLine" style="undefined;;;undefined" data-edge="true" data-et="edge" data-id="id_entity-USER-0_entity-BILLING-1_0" data-points="W3sieCI6NDYuNzcxOTExMzM3MjA5MywieSI6MTIyfSx7IngiOjM0Ljg1MTU2MjUsInkiOjE3Mi41fSx7IngiOjIxNi4zNTE1NjI1LCJ5IjoyODYuODQ1NDQzNjM3MDkwODV9XQ==" data-look="classic" marker-start="url(#my-svg_er-onlyOneStart)" marker-end="url(#my-svg_er-zeroOrMoreEnd)"/><path d="M834.688,76.981L759.979,92.901C685.271,108.821,535.854,140.66,461.146,164.997C386.438,189.333,386.438,206.167,386.438,214.583L386.438,223" id="my-svg-id_entity-CLINIC-2_entity-BILLING-1_1" class="edge-thickness-normal edge-pattern-solid relationshipLine" style="undefined;;;undefined" data-edge="true" data-et="edge" data-id="id_entity-CLINIC-2_entity-BILLING-1_1" data-points="W3sieCI6ODM0LjY4NzUsInkiOjc2Ljk4MTQzOTYxMDk4MjkyfSx7IngiOjM4Ni40Mzc1LCJ5IjoxNzIuNX0seyJ4IjozODYuNDM3NSwieSI6MjIzfV0=" data-look="classic" marker-start="url(#my-svg_er-onlyOneStart)" marker-end="url(#my-svg_er-zeroOrMoreEnd)"/><path d="M1204.492,122L1204.492,130.417C1204.492,138.833,1204.492,155.667,1096.497,193.324C988.503,230.982,772.513,289.465,664.518,318.706L556.523,347.947" id="my-svg-id_entity-APPOINTMENT-3_entity-BILLING-1_2" class="edge-thickness-normal edge-pattern-solid relationshipLine" style="undefined;;;undefined" data-edge="true" data-et="edge" data-id="id_entity-APPOINTMENT-3_entity-BILLING-1_2" data-points="W3sieCI6MTIwNC40OTIxODc1LCJ5IjoxMjJ9LHsieCI6MTIwNC40OTIxODc1LCJ5IjoxNzIuNX0seyJ4Ijo1NTYuNTIzNDM3NSwieSI6MzQ3Ljk0NjgwMTE5NTY3MTl9XQ==" data-look="classic" marker-start="url(#my-svg_er-zeroOrOneStart)" marker-end="url(#my-svg_er-zeroOrOneEnd)"/><path d="M73.681,122L75.668,130.417C77.655,138.833,81.628,155.667,185.435,192.878C289.242,230.089,492.883,287.678,594.703,316.472L696.523,345.266" id="my-svg-id_entity-USER-0_entity-CASH_REGISTER-4_3" class="edge-thickness-normal edge-pattern-solid relationshipLine" style="undefined;;;undefined" data-edge="true" data-et="edge" data-id="id_entity-USER-0_entity-CASH_REGISTER-4_3" data-points="W3sieCI6NzMuNjgxMjEzNjYyNzkwNywieSI6MTIyfSx7IngiOjg1LjYwMTU2MjUsInkiOjE3Mi41fSx7IngiOjY5Ni41MjM0Mzc1LCJ5IjozNDUuMjY2Mjg4MzAxOTQ3MDR9XQ==" data-look="classic" marker-start="url(#my-svg_er-onlyOneStart)" marker-end="url(#my-svg_er-zeroOrMoreEnd)"/><path d="M879.216,122L877.488,130.417C875.761,138.833,872.306,155.667,870.579,176.063C868.852,196.458,868.852,220.417,868.852,232.396L868.852,244.375" id="my-svg-id_entity-CLINIC-2_entity-CASH_REGISTER-4_4" class="edge-thickness-normal edge-pattern-solid relationshipLine" style="undefined;;;undefined" data-edge="true" data-et="edge" data-id="id_entity-CLINIC-2_entity-CASH_REGISTER-4_4" data-points="W3sieCI6ODc5LjIxNTgwNjY4NjA0NjYsInkiOjEyMn0seyJ4Ijo4NjguODUxNTYyNSwieSI6MTcyLjV9LHsieCI6ODY4Ljg1MTU2MjUsInkiOjI0NC4zNzV9XQ==" data-look="classic" marker-start="url(#my-svg_er-onlyOneStart)" marker-end="url(#my-svg_er-zeroOrMoreEnd)"/><path d="M1456.942,122L1446.964,130.417C1436.986,138.833,1417.03,155.667,1347.736,188.956C1278.443,222.246,1159.811,271.992,1100.495,296.865L1041.18,321.738" id="my-svg-id_entity-PROFESSIONAL-5_entity-CASH_REGISTER-4_5" class="edge-thickness-normal edge-pattern-solid relationshipLine" style="undefined;;;undefined" data-edge="true" data-et="edge" data-id="id_entity-PROFESSIONAL-5_entity-CASH_REGISTER-4_5" data-points="W3sieCI6MTQ1Ni45NDIwNDIxNTExNjI3LCJ5IjoxMjJ9LHsieCI6MTM5Ny4wNzQyMTg3NSwieSI6MTcyLjV9LHsieCI6MTA0MS4xNzk2ODc1LCJ5IjozMjEuNzM3NTE4OTQ5ODk4MzR9XQ==" data-look="classic" marker-start="url(#my-svg_er-zeroOrOneStart)" marker-end="url(#my-svg_er-zeroOrMoreEnd)"/><path d="M92.542,122L97.313,130.417C102.085,138.833,111.629,155.667,116.4,201C121.172,246.333,121.172,320.167,121.172,394C121.172,467.833,121.172,541.667,203.383,612.096C285.595,682.525,450.018,749.55,532.23,783.063L614.441,816.576" id="my-svg-id_entity-USER-0_entity-CASH_MOVEMENT-6_6" class="edge-thickness-normal edge-pattern-solid relationshipLine" style="undefined;;;undefined" data-edge="true" data-et="edge" data-id="id_entity-USER-0_entity-CASH_MOVEMENT-6_6" data-points="W3sieCI6OTIuNTQxNzUxNDUzNDg4MzcsInkiOjEyMn0seyJ4IjoxMjEuMTcxODc1LCJ5IjoxNzIuNX0seyJ4IjoxMjEuMTcxODc1LCJ5IjozOTR9LHsieCI6MTIxLjE3MTg3NSwieSI6NjE1LjV9LHsieCI6NjE0LjQ0MTQwNjI1LCJ5Ijo4MTYuNTc1NjAyMTM1NTcwMX1d" data-look="classic" marker-start="url(#my-svg_er-onlyOneStart)" marker-end="url(#my-svg_er-zeroOrMoreEnd)"/><path d="M947.141,89.129L979.52,103.024C1011.898,116.919,1076.656,144.71,1109.035,195.522C1141.414,246.333,1141.414,320.167,1141.414,394C1141.414,467.833,1141.414,541.667,1105.244,604.277C1069.074,666.887,996.734,718.274,960.564,743.968L924.395,769.661" id="my-svg-id_entity-CLINIC-2_entity-CASH_MOVEMENT-6_7" class="edge-thickness-normal edge-pattern-solid relationshipLine" style="undefined;;;undefined" data-edge="true" data-et="edge" data-id="id_entity-CLINIC-2_entity-CASH_MOVEMENT-6_7" data-points="W3sieCI6OTQ3LjE0MDYyNSwieSI6ODkuMTI5MTYzNTQ3OTA0Mn0seyJ4IjoxMTQxLjQxNDA2MjUsInkiOjE3Mi41fSx7IngiOjExNDEuNDE0MDYyNSwieSI6Mzk0fSx7IngiOjExNDEuNDE0MDYyNSwieSI6NjE1LjV9LHsieCI6OTI0LjM5NDUzMTI1LCJ5Ijo3NjkuNjYxMzI2MTQzNzk3N31d" data-look="classic" marker-start="url(#my-svg_er-onlyOneStart)" marker-end="url(#my-svg_er-zeroOrMoreEnd)"/><path d="M1536.214,122L1537.941,130.417C1539.669,138.833,1543.123,155.667,1544.851,201C1546.578,246.333,1546.578,320.167,1546.578,394C1546.578,467.833,1546.578,541.667,1442.881,613.842C1339.184,686.018,1131.789,756.537,1028.092,791.796L924.395,827.055" id="my-svg-id_entity-PROFESSIONAL-5_entity-CASH_MOVEMENT-6_8" class="edge-thickness-normal edge-pattern-solid relationshipLine" style="undefined;;;undefined" data-edge="true" data-et="edge" data-id="id_entity-PROFESSIONAL-5_entity-CASH_MOVEMENT-6_8" data-points="W3sieCI6MTUzNi4yMTM4ODA4MTM5NTM0LCJ5IjoxMjJ9LHsieCI6MTU0Ni41NzgxMjUsInkiOjE3Mi41fSx7IngiOjE1NDYuNTc4MTI1LCJ5IjozOTR9LHsieCI6MTU0Ni41NzgxMjUsInkiOjYxNS41fSx7IngiOjkyNC4zOTQ1MzEyNSwieSI6ODI3LjA1NDg2ODQ4NjUyN31d" data-look="classic" marker-start="url(#my-svg_er-zeroOrOneStart)" marker-end="url(#my-svg_er-zeroOrMoreEnd)"/><path d="M386.438,565L386.438,573.417C386.438,581.833,386.438,598.667,424.438,633.303C462.439,667.94,538.44,720.379,576.441,746.599L614.441,772.819" id="my-svg-id_entity-BILLING-1_entity-CASH_MOVEMENT-6_9" class="edge-thickness-normal edge-pattern-solid relationshipLine" style="undefined;;;undefined" data-edge="true" data-et="edge" data-id="id_entity-BILLING-1_entity-CASH_MOVEMENT-6_9" data-points="W3sieCI6Mzg2LjQzNzUsInkiOjU2NX0seyJ4IjozODYuNDM3NSwieSI6NjE1LjV9LHsieCI6NjE0LjQ0MTQwNjI1LCJ5Ijo3NzIuODE4ODExNjQzODcwNX1d" data-look="classic" marker-start="url(#my-svg_er-zeroOrOneStart)" marker-end="url(#my-svg_er-zeroOrMoreEnd)"/><path d="M868.852,543.625L868.852,555.604C868.852,567.583,868.852,591.542,865.684,611.938C862.517,632.333,856.183,649.167,853.016,657.583L849.849,666" id="my-svg-id_entity-CASH_REGISTER-4_entity-CASH_MOVEMENT-6_10" class="edge-thickness-normal edge-pattern-solid relationshipLine" style="undefined;;;undefined" data-edge="true" data-et="edge" data-id="id_entity-CASH_REGISTER-4_entity-CASH_MOVEMENT-6_10" data-points="W3sieCI6ODY4Ljg1MTU2MjUsInkiOjU0My42MjV9LHsieCI6ODY4Ljg1MTU2MjUsInkiOjYxNS41fSx7IngiOjg0OS44NDkxMTYwMTIyOTksInkiOjY2Nn1d" data-look="classic" marker-start="url(#my-svg_er-zeroOrOneStart)" marker-end="url(#my-svg_er-zeroOrMoreEnd)"/></g><g class="edgeLabels"><g class="edgeLabel" transform="translate(103.65067, 215.84361)"><g class="label" data-id="id_entity-USER-0_entity-BILLING-1_0" transform="translate(-15.1796875, -10.5)"><foreignObject width="30.359375" height="21"><div xmlns="http://www.w3.org/1999/xhtml" class="labelBkg" style="display: table-cell; white-space: nowrap; line-height: 1.5; max-width: 200px; text-align: center;"><span class="edgeLabel"><p>criou</p></span></div></foreignObject></g></g><g class="edgeLabel" transform="translate(386.4375, 172.5)"><g class="label" data-id="id_entity-CLINIC-2_entity-BILLING-1_1" transform="translate(-20.234375, -10.5)"><foreignObject width="40.46875" height="21"><div xmlns="http://www.w3.org/1999/xhtml" class="labelBkg" style="display: table-cell; white-space: nowrap; line-height: 1.5; max-width: 200px; text-align: center;"><span class="edgeLabel"><p>possui</p></span></div></foreignObject></g></g><g class="edgeLabel" transform="translate(1204.4921875, 172.5)"><g class="label" data-id="id_entity-APPOINTMENT-3_entity-BILLING-1_2" transform="translate(-21.015625, -10.5)"><foreignObject width="42.03125" height="21"><div xmlns="http://www.w3.org/1999/xhtml" class="labelBkg" style="display: table-cell; white-space: nowrap; line-height: 1.5; max-width: 200px; text-align: center;"><span class="edgeLabel"><p>origina</p></span></div></foreignObject></g></g><g class="edgeLabel" transform="translate(366.09766, 251.82319)"><g class="label" data-id="id_entity-USER-0_entity-CASH_REGISTER-4_3" transform="translate(-15.5703125, -10.5)"><foreignObject width="31.140625" height="21"><div xmlns="http://www.w3.org/1999/xhtml" class="labelBkg" style="display: table-cell; white-space: nowrap; line-height: 1.5; max-width: 200px; text-align: center;"><span class="edgeLabel"><p>abriu</p></span></div></foreignObject></g></g><g class="edgeLabel" transform="translate(868.8515625, 172.5)"><g class="label" data-id="id_entity-CLINIC-2_entity-CASH_REGISTER-4_4" transform="translate(-20.234375, -10.5)"><foreignObject width="40.46875" height="21"><div xmlns="http://www.w3.org/1999/xhtml" class="labelBkg" style="display: table-cell; white-space: nowrap; line-height: 1.5; max-width: 200px; text-align: center;"><span class="edgeLabel"><p>possui</p></span></div></foreignObject></g></g><g class="edgeLabel" transform="translate(1255.24153, 231.97481)"><g class="label" data-id="id_entity-PROFESSIONAL-5_entity-CASH_REGISTER-4_5" transform="translate(-24.125, -10.5)"><foreignObject width="48.25" height="21"><div xmlns="http://www.w3.org/1999/xhtml" class="labelBkg" style="display: table-cell; white-space: nowrap; line-height: 1.5; max-width: 200px; text-align: center;"><span class="edgeLabel"><p>delimita</p></span></div></foreignObject></g></g><g class="edgeLabel" transform="translate(121.171875, 394)"><g class="label" data-id="id_entity-USER-0_entity-CASH_MOVEMENT-6_6" transform="translate(-15.1796875, -10.5)"><foreignObject width="30.359375" height="21"><div xmlns="http://www.w3.org/1999/xhtml" class="labelBkg" style="display: table-cell; white-space: nowrap; line-height: 1.5; max-width: 200px; text-align: center;"><span class="edgeLabel"><p>criou</p></span></div></foreignObject></g></g><g class="edgeLabel" transform="translate(1141.4140625, 394)"><g class="label" data-id="id_entity-CLINIC-2_entity-CASH_MOVEMENT-6_7" transform="translate(-20.234375, -10.5)"><foreignObject width="40.46875" height="21"><div xmlns="http://www.w3.org/1999/xhtml" class="labelBkg" style="display: table-cell; white-space: nowrap; line-height: 1.5; max-width: 200px; text-align: center;"><span class="edgeLabel"><p>possui</p></span></div></foreignObject></g></g><g class="edgeLabel" transform="translate(1546.578125, 394)"><g class="label" data-id="id_entity-PROFESSIONAL-5_entity-CASH_MOVEMENT-6_8" transform="translate(-21.40625, -10.5)"><foreignObject width="42.8125" height="21"><div xmlns="http://www.w3.org/1999/xhtml" class="labelBkg" style="display: table-cell; white-space: nowrap; line-height: 1.5; max-width: 200px; text-align: center;"><span class="edgeLabel"><p>recebe</p></span></div></foreignObject></g></g><g class="edgeLabel" transform="translate(386.4375, 615.5)"><g class="label" data-id="id_entity-BILLING-1_entity-CASH_MOVEMENT-6_9" transform="translate(-20.2421875, -10.5)"><foreignObject width="40.484375" height="21"><div xmlns="http://www.w3.org/1999/xhtml" class="labelBkg" style="display: table-cell; white-space: nowrap; line-height: 1.5; max-width: 200px; text-align: center;"><span class="edgeLabel"><p>liquida</p></span></div></foreignObject></g></g><g class="edgeLabel" transform="translate(868.8515625, 615.5)"><g class="label" data-id="id_entity-CASH_REGISTER-4_entity-CASH_MOVEMENT-6_10" transform="translate(-21.796875, -10.5)"><foreignObject width="43.59375" height="21"><div xmlns="http://www.w3.org/1999/xhtml" class="labelBkg" style="display: table-cell; white-space: nowrap; line-height: 1.5; max-width: 200px; text-align: center;"><span class="edgeLabel"><p>agrupa</p></span></div></foreignObject></g></g></g><g class="nodes"><g class="node default" id="my-svg-entity-USER-0" data-look="classic" transform="translate(60.2265625, 65)"><rect class="basic label-container" style="" x="-52.2265625" y="-57" width="104.453125" height="114"/><g class="label" style="" transform="translate(-22.2265625, -12)"><rect/><foreignObject width="44.453125" height="24"><div xmlns="http://www.w3.org/1999/xhtml" style="display: table-cell; white-space: nowrap; line-height: 1.5; max-width: 200px; text-align: center;"><span class="nodeLabel markdown-node-label"><p>USER</p></span></div></foreignObject></g></g><g class="node default" id="my-svg-entity-BILLING-1" data-look="classic" transform="translate(386.4375, 394)"><g class="outer-path" style=""><path d="M-170.0859375 -171 L170.0859375 -171 L170.0859375 171 L-170.0859375 171" stroke="none" stroke-width="0" fill="#F8E8ED"/><path d="M-170.0859375 -171 C-79.59871148678414 -171, 10.88851452643172 -171, 170.0859375 -171 M-170.0859375 -171 C-50.28816006039813 -171, 69.50961737920375 -171, 170.0859375 -171 M170.0859375 -171 C170.0859375 -61.149301643060326, 170.0859375 48.70139671387935, 170.0859375 171 M170.0859375 -171 C170.0859375 -40.83010512177674, 170.0859375 89.33978975644652, 170.0859375 171 M170.0859375 171 C48.80762484290888 171, -72.47068781418224 171, -170.0859375 171 M170.0859375 171 C43.308907766086335 171, -83.46812196782733 171, -170.0859375 171 M-170.0859375 171 C-170.0859375 66.2746875997259, -170.0859375 -38.45062480054821, -170.0859375 -171 M-170.0859375 171 C-170.0859375 90.63694549869247, -170.0859375 10.273890997384939, -170.0859375 -171" stroke="#B75C75" stroke-width="1.3" fill="none" stroke-dasharray="0 0"/></g><g style="" class="row-rect-odd"><path d="M-170.0859375 -128.25 L170.0859375 -128.25 L170.0859375 -85.5 L-170.0859375 -85.5" stroke="none" stroke-width="0" fill="hsl(341.25, 53.3333333333%, 100%)"/><path d="M-170.0859375 -128.25 C-98.14136675241491 -128.25, -26.19679600482982 -128.25, 170.0859375 -128.25 M-170.0859375 -128.25 C-80.51303351832932 -128.25, 9.059870463341355 -128.25, 170.0859375 -128.25 M170.0859375 -128.25 C170.0859375 -117.58957599293991, 170.0859375 -106.92915198587983, 170.0859375 -85.5 M170.0859375 -128.25 C170.0859375 -116.90401939591699, 170.0859375 -105.55803879183397, 170.0859375 -85.5 M170.0859375 -85.5 C73.80746378972809 -85.5, -22.47100992054382 -85.5, -170.0859375 -85.5 M170.0859375 -85.5 C73.11088830871785 -85.5, -23.864160882564306 -85.5, -170.0859375 -85.5 M-170.0859375 -85.5 C-170.0859375 -96.96491340668942, -170.0859375 -108.42982681337885, -170.0859375 -128.25 M-170.0859375 -85.5 C-170.0859375 -100.3574716915636, -170.0859375 -115.21494338312719, -170.0859375 -128.25" stroke="#B75C75" stroke-width="1.3" fill="none" stroke-dasharray="0 0"/></g><g style="" class="row-rect-even"><path d="M-170.0859375 -85.5 L170.0859375 -85.5 L170.0859375 -42.75 L-170.0859375 -42.75" stroke="none" stroke-width="0" fill="hsl(341.25, 53.3333333333%, 99.1176470588%)"/><path d="M-170.0859375 -85.5 C-42.80743932621559 -85.5, 84.47105884756883 -85.5, 170.0859375 -85.5 M-170.0859375 -85.5 C-85.6087188116755 -85.5, -1.1315001233510031 -85.5, 170.0859375 -85.5 M170.0859375 -85.5 C170.0859375 -73.30272522622465, 170.0859375 -61.10545045244932, 170.0859375 -42.75 M170.0859375 -85.5 C170.0859375 -73.13145227362067, 170.0859375 -60.762904547241334, 170.0859375 -42.75 M170.0859375 -42.75 C71.11965226178918 -42.75, -27.84663297642163 -42.75, -170.0859375 -42.75 M170.0859375 -42.75 C55.64799226430617 -42.75, -58.78995297138766 -42.75, -170.0859375 -42.75 M-170.0859375 -42.75 C-170.0859375 -53.62431147442877, -170.0859375 -64.49862294885754, -170.0859375 -85.5 M-170.0859375 -42.75 C-170.0859375 -58.37776513088561, -170.0859375 -74.00553026177121, -170.0859375 -85.5" stroke="#B75C75" stroke-width="1.3" fill="none" stroke-dasharray="0 0"/></g><g style="" class="row-rect-odd"><path d="M-170.0859375 -42.75 L170.0859375 -42.75 L170.0859375 0 L-170.0859375 0" stroke="none" stroke-width="0" fill="hsl(341.25, 53.3333333333%, 100%)"/><path d="M-170.0859375 -42.75 C-53.694300410239876 -42.75, 62.69733667952025 -42.75, 170.0859375 -42.75 M-170.0859375 -42.75 C-81.27820589479832 -42.75, 7.529525710403362 -42.75, 170.0859375 -42.75 M170.0859375 -42.75 C170.0859375 -32.034792053743175, 170.0859375 -21.319584107486353, 170.0859375 0 M170.0859375 -42.75 C170.0859375 -28.99521903165717, 170.0859375 -15.240438063314343, 170.0859375 0 M170.0859375 0 C50.942044092236216 0, -68.20184931552757 0, -170.0859375 0 M170.0859375 0 C96.05519792284862 0, 22.02445834569724 0, -170.0859375 0 M-170.0859375 0 C-170.0859375 -13.915253481024774, -170.0859375 -27.830506962049547, -170.0859375 -42.75 M-170.0859375 0 C-170.0859375 -16.83203772691237, -170.0859375 -33.66407545382474, -170.0859375 -42.75" stroke="#B75C75" stroke-width="1.3" fill="none" stroke-dasharray="0 0"/></g><g style="" class="row-rect-even"><path d="M-170.0859375 0 L170.0859375 0 L170.0859375 42.75 L-170.0859375 42.75" stroke="none" stroke-width="0" fill="hsl(341.25, 53.3333333333%, 99.1176470588%)"/><path d="M-170.0859375 0 C-85.55706054949921 0, -1.0281835989984245 0, 170.0859375 0 M-170.0859375 0 C-47.99428186524689 0, 74.09737376950622 0, 170.0859375 0 M170.0859375 0 C170.0859375 11.694172709170525, 170.0859375 23.38834541834105, 170.0859375 42.75 M170.0859375 0 C170.0859375 9.220005536286568, 170.0859375 18.440011072573135, 170.0859375 42.75 M170.0859375 42.75 C70.93529797985771 42.75, -28.215341540284584 42.75, -170.0859375 42.75 M170.0859375 42.75 C37.61246587495958 42.75, -94.86100575008084 42.75, -170.0859375 42.75 M-170.0859375 42.75 C-170.0859375 30.824415691694128, -170.0859375 18.89883138338826, -170.0859375 0 M-170.0859375 42.75 C-170.0859375 34.1197891705202, -170.0859375 25.489578341040403, -170.0859375 0" stroke="#B75C75" stroke-width="1.3" fill="none" stroke-dasharray="0 0"/></g><g style="" class="row-rect-odd"><path d="M-170.0859375 42.75 L170.0859375 42.75 L170.0859375 85.5 L-170.0859375 85.5" stroke="none" stroke-width="0" fill="hsl(341.25, 53.3333333333%, 100%)"/><path d="M-170.0859375 42.75 C-71.72228710333641 42.75, 26.641363293327174 42.75, 170.0859375 42.75 M-170.0859375 42.75 C-35.3139488902828 42.75, 99.4580397194344 42.75, 170.0859375 42.75 M170.0859375 42.75 C170.0859375 52.308030561135496, 170.0859375 61.86606112227099, 170.0859375 85.5 M170.0859375 42.75 C170.0859375 54.34878067879834, 170.0859375 65.94756135759668, 170.0859375 85.5 M170.0859375 85.5 C74.79257680621704 85.5, -20.500783887565916 85.5, -170.0859375 85.5 M170.0859375 85.5 C90.08482970307846 85.5, 10.08372190615691 85.5, -170.0859375 85.5 M-170.0859375 85.5 C-170.0859375 70.38578378891158, -170.0859375 55.27156757782315, -170.0859375 42.75 M-170.0859375 85.5 C-170.0859375 69.64867797977946, -170.0859375 53.797355959558914, -170.0859375 42.75" stroke="#B75C75" stroke-width="1.3" fill="none" stroke-dasharray="0 0"/></g><g style="" class="row-rect-even"><path d="M-170.0859375 85.5 L170.0859375 85.5 L170.0859375 128.25 L-170.0859375 128.25" stroke="none" stroke-width="0" fill="hsl(341.25, 53.3333333333%, 99.1176470588%)"/><path d="M-170.0859375 85.5 C-100.74410162892275 85.5, -31.4022657578455 85.5, 170.0859375 85.5 M-170.0859375 85.5 C-65.62070477012979 85.5, 38.84452795974042 85.5, 170.0859375 85.5 M170.0859375 85.5 C170.0859375 101.30294088425487, 170.0859375 117.10588176850973, 170.0859375 128.25 M170.0859375 85.5 C170.0859375 97.69256536427092, 170.0859375 109.88513072854184, 170.0859375 128.25 M170.0859375 128.25 C88.08881263401204 128.25, 6.091687768024087 128.25, -170.0859375 128.25 M170.0859375 128.25 C89.18958774082503 128.25, 8.293237981650066 128.25, -170.0859375 128.25 M-170.0859375 128.25 C-170.0859375 113.25665771321799, -170.0859375 98.263315426436, -170.0859375 85.5 M-170.0859375 128.25 C-170.0859375 115.84596964802523, -170.0859375 103.44193929605046, -170.0859375 85.5" stroke="#B75C75" stroke-width="1.3" fill="none" stroke-dasharray="0 0"/></g><g style="" class="row-rect-odd"><path d="M-170.0859375 128.25 L170.0859375 128.25 L170.0859375 171 L-170.0859375 171" stroke="none" stroke-width="0" fill="hsl(341.25, 53.3333333333%, 100%)"/><path d="M-170.0859375 128.25 C-101.11442436324965 128.25, -32.14291122649931 128.25, 170.0859375 128.25 M-170.0859375 128.25 C-77.1468717028038 128.25, 15.792194094392414 128.25, 170.0859375 128.25 M170.0859375 128.25 C170.0859375 141.5103303754139, 170.0859375 154.7706607508278, 170.0859375 171 M170.0859375 128.25 C170.0859375 143.95819534114418, 170.0859375 159.66639068228835, 170.0859375 171 M170.0859375 171 C86.73494829319668 171, 3.383959086393361 171, -170.0859375 171 M170.0859375 171 C71.78597495346095 171, -26.5139875930781 171, -170.0859375 171 M-170.0859375 171 C-170.0859375 159.1580615413546, -170.0859375 147.31612308270923, -170.0859375 128.25 M-170.0859375 171 C-170.0859375 154.58553845415017, -170.0859375 138.17107690830034, -170.0859375 128.25" stroke="#B75C75" stroke-width="1.3" fill="none" stroke-dasharray="0 0"/></g><g class="label name" transform="translate(-30.6796875, -161.625)" style=""><foreignObject width="61.359375" height="24"><div xmlns="http://www.w3.org/1999/xhtml" style="display: table-cell; white-space: nowrap; line-height: 1.5; max-width: 161px; text-align: start;"><span class="nodeLabel"><p>BILLING</p></span></div></foreignObject></g><g class="label attribute-type" transform="translate(-151.3359375, -118.875)" style=""><foreignObject width="39.125" height="24"><div xmlns="http://www.w3.org/1999/xhtml" style="display: table-cell; white-space: nowrap; line-height: 1.5; max-width: 139px; text-align: start;"><span class="nodeLabel"><p>string</p></span></div></foreignObject></g><g class="label attribute-name" transform="translate(-58.6953125, -118.875)" style=""><foreignObject width="12.453125" height="24"><div xmlns="http://www.w3.org/1999/xhtml" style="display: table-cell; white-space: nowrap; line-height: 1.5; max-width: 113px; text-align: start;"><span class="nodeLabel"><p>id</p></span></div></foreignObject></g><g class="label attribute-keys" transform="translate(104.2109375, -118.875)" style=""><foreignObject width="21.34375" height="24"><div xmlns="http://www.w3.org/1999/xhtml" style="display: table-cell; white-space: nowrap; line-height: 1.5; max-width: 123px; text-align: start;"><span class="nodeLabel"><p>PK</p></span></div></foreignObject></g><g class="label attribute-comment" transform="translate(188.8359375, -118.875)" style=""><foreignObject width="0" height="0"><div xmlns="http://www.w3.org/1999/xhtml" style="display: table-cell; white-space: nowrap; line-height: 1.5; max-width: 100px; text-align: start;"><span class="nodeLabel"></span></div></foreignObject></g><g class="label attribute-type" transform="translate(-151.3359375, -76.125)" style=""><foreignObject width="39.125" height="24"><div xmlns="http://www.w3.org/1999/xhtml" style="display: table-cell; white-space: nowrap; line-height: 1.5; max-width: 139px; text-align: start;"><span class="nodeLabel"><p>string</p></span></div></foreignObject></g><g class="label attribute-name" transform="translate(-58.6953125, -76.125)" style=""><foreignObject width="101.40625" height="24"><div xmlns="http://www.w3.org/1999/xhtml" style="display: table-cell; white-space: nowrap; line-height: 1.5; max-width: 202px; text-align: start;"><span class="nodeLabel"><p>appointmentId</p></span></div></foreignObject></g><g class="label attribute-keys" transform="translate(104.2109375, -76.125)" style=""><foreignObject width="47.125" height="24"><div xmlns="http://www.w3.org/1999/xhtml" style="display: table-cell; white-space: nowrap; line-height: 1.5; max-width: 148px; text-align: start;"><span class="nodeLabel"><p>FK,UK</p></span></div></foreignObject></g><g class="label attribute-comment" transform="translate(188.8359375, -76.125)" style=""><foreignObject width="0" height="0"><div xmlns="http://www.w3.org/1999/xhtml" style="display: table-cell; white-space: nowrap; line-height: 1.5; max-width: 100px; text-align: start;"><span class="nodeLabel"></span></div></foreignObject></g><g class="label attribute-type" transform="translate(-151.3359375, -33.375)" style=""><foreignObject width="55.140625" height="24"><div xmlns="http://www.w3.org/1999/xhtml" style="display: table-cell; white-space: nowrap; line-height: 1.5; max-width: 155px; text-align: start;"><span class="nodeLabel"><p>decimal</p></span></div></foreignObject></g><g class="label attribute-name" transform="translate(-58.6953125, -33.375)" style=""><foreignObject width="53.375" height="24"><div xmlns="http://www.w3.org/1999/xhtml" style="display: table-cell; white-space: nowrap; line-height: 1.5; max-width: 154px; text-align: start;"><span class="nodeLabel"><p>amount</p></span></div></foreignObject></g><g class="label attribute-keys" transform="translate(104.2109375, -33.375)" style=""><foreignObject width="0" height="0"><div xmlns="http://www.w3.org/1999/xhtml" style="display: table-cell; white-space: nowrap; line-height: 1.5; max-width: 100px; text-align: start;"><span class="nodeLabel"></span></div></foreignObject></g><g class="label attribute-comment" transform="translate(188.8359375, -33.375)" style=""><foreignObject width="0" height="0"><div xmlns="http://www.w3.org/1999/xhtml" style="display: table-cell; white-space: nowrap; line-height: 1.5; max-width: 100px; text-align: start;"><span class="nodeLabel"></span></div></foreignObject></g><g class="label attribute-type" transform="translate(-151.3359375, 9.375)" style=""><foreignObject width="55.140625" height="24"><div xmlns="http://www.w3.org/1999/xhtml" style="display: table-cell; white-space: nowrap; line-height: 1.5; max-width: 155px; text-align: start;"><span class="nodeLabel"><p>decimal</p></span></div></foreignObject></g><g class="label attribute-name" transform="translate(-58.6953125, 9.375)" style=""><foreignObject width="85.390625" height="24"><div xmlns="http://www.w3.org/1999/xhtml" style="display: table-cell; white-space: nowrap; line-height: 1.5; max-width: 186px; text-align: start;"><span class="nodeLabel"><p>paidAmount</p></span></div></foreignObject></g><g class="label attribute-keys" transform="translate(104.2109375, 9.375)" style=""><foreignObject width="0" height="0"><div xmlns="http://www.w3.org/1999/xhtml" style="display: table-cell; white-space: nowrap; line-height: 1.5; max-width: 100px; text-align: start;"><span class="nodeLabel"></span></div></foreignObject></g><g class="label attribute-comment" transform="translate(188.8359375, 9.375)" style=""><foreignObject width="0" height="0"><div xmlns="http://www.w3.org/1999/xhtml" style="display: table-cell; white-space: nowrap; line-height: 1.5; max-width: 100px; text-align: start;"><span class="nodeLabel"></span></div></foreignObject></g><g class="label attribute-type" transform="translate(-151.3359375, 52.125)" style=""><foreignObject width="55.140625" height="24"><div xmlns="http://www.w3.org/1999/xhtml" style="display: table-cell; white-space: nowrap; line-height: 1.5; max-width: 155px; text-align: start;"><span class="nodeLabel"><p>decimal</p></span></div></foreignObject></g><g class="label attribute-name" transform="translate(-58.6953125, 52.125)" style=""><foreignObject width="125.40625" height="24"><div xmlns="http://www.w3.org/1999/xhtml" style="display: table-cell; white-space: nowrap; line-height: 1.5; max-width: 226px; text-align: start;"><span class="nodeLabel"><p>remainingAmount</p></span></div></foreignObject></g><g class="label attribute-keys" transform="translate(104.2109375, 52.125)" style=""><foreignObject width="0" height="0"><div xmlns="http://www.w3.org/1999/xhtml" style="display: table-cell; white-space: nowrap; line-height: 1.5; max-width: 100px; text-align: start;"><span class="nodeLabel"></span></div></foreignObject></g><g class="label attribute-comment" transform="translate(188.8359375, 52.125)" style=""><foreignObject width="0" height="0"><div xmlns="http://www.w3.org/1999/xhtml" style="display: table-cell; white-space: nowrap; line-height: 1.5; max-width: 100px; text-align: start;"><span class="nodeLabel"></span></div></foreignObject></g><g class="label attribute-type" transform="translate(-151.3359375, 94.875)" style=""><foreignObject width="40.03125" height="24"><div xmlns="http://www.w3.org/1999/xhtml" style="display: table-cell; white-space: nowrap; line-height: 1.5; max-width: 140px; text-align: start;"><span class="nodeLabel"><p>enum</p></span></div></foreignObject></g><g class="label attribute-name" transform="translate(-58.6953125, 94.875)" style=""><foreignObject width="42.6875" height="24"><div xmlns="http://www.w3.org/1999/xhtml" style="display: table-cell; white-space: nowrap; line-height: 1.5; max-width: 143px; text-align: start;"><span class="nodeLabel"><p>status</p></span></div></foreignObject></g><g class="label attribute-keys" transform="translate(104.2109375, 94.875)" style=""><foreignObject width="0" height="0"><div xmlns="http://www.w3.org/1999/xhtml" style="display: table-cell; white-space: nowrap; line-height: 1.5; max-width: 100px; text-align: start;"><span class="nodeLabel"></span></div></foreignObject></g><g class="label attribute-comment" transform="translate(188.8359375, 94.875)" style=""><foreignObject width="0" height="0"><div xmlns="http://www.w3.org/1999/xhtml" style="display: table-cell; white-space: nowrap; line-height: 1.5; max-width: 100px; text-align: start;"><span class="nodeLabel"></span></div></foreignObject></g><g class="label attribute-type" transform="translate(-151.3359375, 137.625)" style=""><foreignObject width="40.03125" height="24"><div xmlns="http://www.w3.org/1999/xhtml" style="display: table-cell; white-space: nowrap; line-height: 1.5; max-width: 140px; text-align: start;"><span class="nodeLabel"><p>enum</p></span></div></foreignObject></g><g class="label attribute-name" transform="translate(-58.6953125, 137.625)" style=""><foreignObject width="79.15625" height="24"><div xmlns="http://www.w3.org/1999/xhtml" style="display: table-cell; white-space: nowrap; line-height: 1.5; max-width: 180px; text-align: start;"><span class="nodeLabel"><p>receivedBy</p></span></div></foreignObject></g><g class="label attribute-keys" transform="translate(104.2109375, 137.625)" style=""><foreignObject width="0" height="0"><div xmlns="http://www.w3.org/1999/xhtml" style="display: table-cell; white-space: nowrap; line-height: 1.5; max-width: 100px; text-align: start;"><span class="nodeLabel"></span></div></foreignObject></g><g class="label attribute-comment" transform="translate(188.8359375, 137.625)" style=""><foreignObject width="0" height="0"><div xmlns="http://www.w3.org/1999/xhtml" style="display: table-cell; white-space: nowrap; line-height: 1.5; max-width: 100px; text-align: start;"><span class="nodeLabel"></span></div></foreignObject></g><g class="divider"><path d="M-170.0859375 -128.25005 L-170.0859375 -128.24995 L170.0859375 -128.24995 L170.0859375 -128.25005" stroke="none" stroke-width="0" fill="#F8E8ED" fill-rule="evenodd"/><path d="M-170.0859375 -128.25005 C-170.0859375 -128.25002617470327, -170.0859375 -128.25000234940657, -170.0859375 -128.24995 M-170.0859375 -128.25005 C-170.0859375 -128.25001547581772, -170.0859375 -128.24998095163545, -170.0859375 -128.24995 M-170.0859375 -128.24995 C-53.16112553515656 -128.24995, 63.763686429686885 -128.24995, 170.0859375 -128.24995 M-170.0859375 -128.24995 C-99.92962397461591 -128.24995, -29.773310449231815 -128.24995, 170.0859375 -128.24995 M170.0859375 -128.24995 C170.0859375 -128.24997321245635, 170.0859375 -128.24999642491267, 170.0859375 -128.25005 M170.0859375 -128.24995 C170.0859375 -128.24998277437683, 170.0859375 -128.25001554875362, 170.0859375 -128.25005 M170.0859375 -128.25005 C53.465577461226275 -128.25005, -63.15478257754745 -128.25005, -170.0859375 -128.25005 M170.0859375 -128.25005 C88.47800644992245 -128.25005, 6.870075399844893 -128.25005, -170.0859375 -128.25005" stroke="#B75C75" stroke-width="1.3" fill="none" stroke-dasharray="0 0"/></g><g class="divider"><path d="M-77.4453625 -128.25 L-77.4452625 -128.25 L-77.4452625 171 L-77.4453625 171" stroke="none" stroke-width="0" fill="#F8E8ED" fill-rule="evenodd"/><path d="M-77.4453625 -128.25 C-77.44533458359923 -128.25, -77.44530666719845 -128.25, -77.4452625 -128.25 M-77.4453625 -128.25 C-77.4453274726076 -128.25, -77.44529244521519 -128.25, -77.4452625 -128.25 M-77.4452625 -128.25 C-77.4452625 -25.776016109518963, -77.4452625 76.69796778096207, -77.4452625 171 M-77.4452625 -128.25 C-77.4452625 -9.991719742633663, -77.4452625 108.26656051473267, -77.4452625 171 M-77.4452625 171 C-77.4452919128514 171, -77.44532132570282 171, -77.4453625 171 M-77.4452625 171 C-77.4452921437031 171, -77.44532178740619 171, -77.4453625 171 M-77.4453625 171 C-77.4453625 75.79003576237504, -77.4453625 -19.419928475249918, -77.4453625 -128.25 M-77.4453625 171 C-77.4453625 105.53474789235219, -77.4453625 40.06949578470437, -77.4453625 -128.25" stroke="#B75C75" stroke-width="1.3" fill="none" stroke-dasharray="0 0"/></g><g class="divider"><path d="M85.4608875 -128.25 L85.4609875 -128.25 L85.4609875 171 L85.4608875 171" stroke="none" stroke-width="0" fill="#F8E8ED" fill-rule="evenodd"/><path d="M85.4608875 -128.25 C85.46090768384057 -128.25, 85.46092786768114 -128.25, 85.4609875 -128.25 M85.4608875 -128.25 C85.46092445592458 -128.25, 85.46096141184917 -128.25, 85.4609875 -128.25 M85.4609875 -128.25 C85.4609875 -30.97124102744445, 85.4609875 66.3075179451111, 85.4609875 171 M85.4609875 -128.25 C85.4609875 -47.586174929267756, 85.4609875 33.07765014146449, 85.4609875 171 M85.4609875 171 C85.46095428445412 171, 85.46092106890825 171, 85.4608875 171 M85.4609875 171 C85.46095071629664 171, 85.46091393259329 171, 85.4608875 171 M85.4608875 171 C85.4608875 67.13844405430204, 85.4608875 -36.72311189139592, 85.4608875 -128.25 M85.4608875 171 C85.4608875 96.91563334693898, 85.4608875 22.83126669387795, 85.4608875 -128.25" stroke="#B75C75" stroke-width="1.3" fill="none" stroke-dasharray="0 0"/></g><g class="divider"><path d="M-170.0859375 -128.25005 L-170.0859375 -128.24995 L170.0859375 -128.24995 L170.0859375 -128.25005" stroke="none" stroke-width="0" fill="#F8E8ED" fill-rule="evenodd"/><path d="M-170.0859375 -128.25005 C-170.0859375 -128.25001877565714, -170.0859375 -128.24998755131432, -170.0859375 -128.24995 M-170.0859375 -128.25005 C-170.0859375 -128.2500254531071, -170.0859375 -128.2500009062142, -170.0859375 -128.24995 M-170.0859375 -128.24995 C-96.51627753542864 -128.24995, -22.946617570857285 -128.24995, 170.0859375 -128.24995 M-170.0859375 -128.24995 C-39.72453291760917 -128.24995, 90.63687166478167 -128.24995, 170.0859375 -128.24995 M170.0859375 -128.24995 C170.0859375 -128.24997965919837, 170.0859375 -128.2500093183967, 170.0859375 -128.25005 M170.0859375 -128.24995 C170.0859375 -128.2499762642718, 170.0859375 -128.25000252854358, 170.0859375 -128.25005 M170.0859375 -128.25005 C97.32179324220807 -128.25005, 24.557648984416147 -128.25005, -170.0859375 -128.25005 M170.0859375 -128.25005 C47.132030002024834 -128.25005, -75.82187749595033 -128.25005, -170.0859375 -128.25005" stroke="#B75C75" stroke-width="1.3" fill="none" stroke-dasharray="0 0"/></g></g><g class="node default" id="my-svg-entity-CLINIC-2" data-look="classic" transform="translate(890.9140625, 65)"><rect class="basic label-container" style="" x="-56.2265625" y="-57" width="112.453125" height="114"/><g class="label" style="" transform="translate(-26.2265625, -12)"><rect/><foreignObject width="52.453125" height="24"><div xmlns="http://www.w3.org/1999/xhtml" style="display: table-cell; white-space: nowrap; line-height: 1.5; max-width: 200px; text-align: center;"><span class="nodeLabel markdown-node-label"><p>CLINIC</p></span></div></foreignObject></g></g><g class="node default" id="my-svg-entity-APPOINTMENT-3" data-look="classic" transform="translate(1204.4921875, 65)"><rect class="basic label-container" style="" x="-87.78125" y="-57" width="175.5625" height="114"/><g class="label" style="" transform="translate(-57.78125, -12)"><rect/><foreignObject width="115.5625" height="24"><div xmlns="http://www.w3.org/1999/xhtml" style="display: table-cell; white-space: nowrap; line-height: 1.5; max-width: 200px; text-align: center;"><span class="nodeLabel markdown-node-label"><p>APPOINTMENT</p></span></div></foreignObject></g></g><g class="node default" id="my-svg-entity-CASH_REGISTER-4" data-look="classic" transform="translate(868.8515625, 394)"><g class="outer-path" style=""><path d="M-172.328125 -149.625 L172.328125 -149.625 L172.328125 149.625 L-172.328125 149.625" stroke="none" stroke-width="0" fill="#F8E8ED"/><path d="M-172.328125 -149.625 C-97.63297962395954 -149.625, -22.937834247919085 -149.625, 172.328125 -149.625 M-172.328125 -149.625 C-72.88973404996395 -149.625, 26.548656900072103 -149.625, 172.328125 -149.625 M172.328125 -149.625 C172.328125 -77.55749251245315, 172.328125 -5.489985024906304, 172.328125 149.625 M172.328125 -149.625 C172.328125 -71.87905941168616, 172.328125 5.866881176627686, 172.328125 149.625 M172.328125 149.625 C73.22332283072545 149.625, -25.8814793385491 149.625, -172.328125 149.625 M172.328125 149.625 C53.062079329653855 149.625, -66.20396634069229 149.625, -172.328125 149.625 M-172.328125 149.625 C-172.328125 61.883885747107556, -172.328125 -25.85722850578489, -172.328125 -149.625 M-172.328125 149.625 C-172.328125 32.57043464364446, -172.328125 -84.48413071271108, -172.328125 -149.625" stroke="#B75C75" stroke-width="1.3" fill="none" stroke-dasharray="0 0"/></g><g style="" class="row-rect-odd"><path d="M-172.328125 -106.875 L172.328125 -106.875 L172.328125 -64.125 L-172.328125 -64.125" stroke="none" stroke-width="0" fill="hsl(341.25, 53.3333333333%, 100%)"/><path d="M-172.328125 -106.875 C-63.47366253988086 -106.875, 45.380799920238275 -106.875, 172.328125 -106.875 M-172.328125 -106.875 C-103.29786445146608 -106.875, -34.267603902932166 -106.875, 172.328125 -106.875 M172.328125 -106.875 C172.328125 -93.23248973330868, 172.328125 -79.58997946661736, 172.328125 -64.125 M172.328125 -106.875 C172.328125 -96.92732180939512, 172.328125 -86.97964361879025, 172.328125 -64.125 M172.328125 -64.125 C76.50719152724008 -64.125, -19.313741945519837 -64.125, -172.328125 -64.125 M172.328125 -64.125 C55.74257553096571 -64.125, -60.84297393806858 -64.125, -172.328125 -64.125 M-172.328125 -64.125 C-172.328125 -80.91550503722702, -172.328125 -97.70601007445404, -172.328125 -106.875 M-172.328125 -64.125 C-172.328125 -73.12435953397444, -172.328125 -82.12371906794887, -172.328125 -106.875" stroke="#B75C75" stroke-width="1.3" fill="none" stroke-dasharray="0 0"/></g><g style="" class="row-rect-even"><path d="M-172.328125 -64.125 L172.328125 -64.125 L172.328125 -21.375 L-172.328125 -21.375" stroke="none" stroke-width="0" fill="hsl(341.25, 53.3333333333%, 99.1176470588%)"/><path d="M-172.328125 -64.125 C-49.17571389031764 -64.125, 73.97669721936472 -64.125, 172.328125 -64.125 M-172.328125 -64.125 C-64.37879445878539 -64.125, 43.570536082429214 -64.125, 172.328125 -64.125 M172.328125 -64.125 C172.328125 -49.55119093179127, 172.328125 -34.977381863582536, 172.328125 -21.375 M172.328125 -64.125 C172.328125 -51.73258594727416, 172.328125 -39.34017189454831, 172.328125 -21.375 M172.328125 -21.375 C97.67165357826734 -21.375, 23.015182156534678 -21.375, -172.328125 -21.375 M172.328125 -21.375 C97.16926287511775 -21.375, 22.010400750235505 -21.375, -172.328125 -21.375 M-172.328125 -21.375 C-172.328125 -33.133464043861636, -172.328125 -44.891928087723265, -172.328125 -64.125 M-172.328125 -21.375 C-172.328125 -31.7454979834693, -172.328125 -42.1159959669386, -172.328125 -64.125" stroke="#B75C75" stroke-width="1.3" fill="none" stroke-dasharray="0 0"/></g><g style="" class="row-rect-odd"><path d="M-172.328125 -21.375 L172.328125 -21.375 L172.328125 21.375 L-172.328125 21.375" stroke="none" stroke-width="0" fill="hsl(341.25, 53.3333333333%, 100%)"/><path d="M-172.328125 -21.375 C-88.72206198557399 -21.375, -5.115998971147974 -21.375, 172.328125 -21.375 M-172.328125 -21.375 C-60.76378740536114 -21.375, 50.800550189277715 -21.375, 172.328125 -21.375 M172.328125 -21.375 C172.328125 -6.167585635464567, 172.328125 9.039828729070866, 172.328125 21.375 M172.328125 -21.375 C172.328125 -7.86067910948557, 172.328125 5.65364178102886, 172.328125 21.375 M172.328125 21.375 C94.86103523632546 21.375, 17.393945472650927 21.375, -172.328125 21.375 M172.328125 21.375 C88.366217858114 21.375, 4.404310716227997 21.375, -172.328125 21.375 M-172.328125 21.375 C-172.328125 10.371345485062369, -172.328125 -0.6323090298752625, -172.328125 -21.375 M-172.328125 21.375 C-172.328125 6.926089423278807, -172.328125 -7.522821153442386, -172.328125 -21.375" stroke="#B75C75" stroke-width="1.3" fill="none" stroke-dasharray="0 0"/></g><g style="" class="row-rect-even"><path d="M-172.328125 21.375 L172.328125 21.375 L172.328125 64.125 L-172.328125 64.125" stroke="none" stroke-width="0" fill="hsl(341.25, 53.3333333333%, 99.1176470588%)"/><path d="M-172.328125 21.375 C-97.22628883042377 21.375, -22.12445266084754 21.375, 172.328125 21.375 M-172.328125 21.375 C-90.01847719751093 21.375, -7.708829395021866 21.375, 172.328125 21.375 M172.328125 21.375 C172.328125 35.95567548317452, 172.328125 50.53635096634903, 172.328125 64.125 M172.328125 21.375 C172.328125 31.90871969819753, 172.328125 42.44243939639506, 172.328125 64.125 M172.328125 64.125 C87.94663866166186 64.125, 3.56515232332373 64.125, -172.328125 64.125 M172.328125 64.125 C47.2053641580102 64.125, -77.9173966839796 64.125, -172.328125 64.125 M-172.328125 64.125 C-172.328125 49.15663614740851, -172.328125 34.188272294817025, -172.328125 21.375 M-172.328125 64.125 C-172.328125 51.67781053786845, -172.328125 39.230621075736906, -172.328125 21.375" stroke="#B75C75" stroke-width="1.3" fill="none" stroke-dasharray="0 0"/></g><g style="" class="row-rect-odd"><path d="M-172.328125 64.125 L172.328125 64.125 L172.328125 106.875 L-172.328125 106.875" stroke="none" stroke-width="0" fill="hsl(341.25, 53.3333333333%, 100%)"/><path d="M-172.328125 64.125 C-71.41800566447402 64.125, 29.492113671051953 64.125, 172.328125 64.125 M-172.328125 64.125 C-99.1481619831768 64.125, -25.96819896635361 64.125, 172.328125 64.125 M172.328125 64.125 C172.328125 79.72276432289075, 172.328125 95.32052864578151, 172.328125 106.875 M172.328125 64.125 C172.328125 78.4084440858532, 172.328125 92.69188817170642, 172.328125 106.875 M172.328125 106.875 C77.55606136223166 106.875, -17.21600227553668 106.875, -172.328125 106.875 M172.328125 106.875 C67.32552558035223 106.875, -37.67707383929553 106.875, -172.328125 106.875 M-172.328125 106.875 C-172.328125 90.8529707280428, -172.328125 74.83094145608561, -172.328125 64.125 M-172.328125 106.875 C-172.328125 92.47203889304228, -172.328125 78.06907778608458, -172.328125 64.125" stroke="#B75C75" stroke-width="1.3" fill="none" stroke-dasharray="0 0"/></g><g style="" class="row-rect-even"><path d="M-172.328125 106.875 L172.328125 106.875 L172.328125 149.625 L-172.328125 149.625" stroke="none" stroke-width="0" fill="hsl(341.25, 53.3333333333%, 99.1176470588%)"/><path d="M-172.328125 106.875 C-85.46418493269147 106.875, 1.3997551346170667 106.875, 172.328125 106.875 M-172.328125 106.875 C-97.8879092208768 106.875, -23.447693441753586 106.875, 172.328125 106.875 M172.328125 106.875 C172.328125 115.47074267342653, 172.328125 124.06648534685307, 172.328125 149.625 M172.328125 106.875 C172.328125 117.4395844311814, 172.328125 128.0041688623628, 172.328125 149.625 M172.328125 149.625 C51.13867668019519 149.625, -70.05077163960962 149.625, -172.328125 149.625 M172.328125 149.625 C68.30686543085193 149.625, -35.71439413829614 149.625, -172.328125 149.625 M-172.328125 149.625 C-172.328125 137.787925944167, -172.328125 125.950851888334, -172.328125 106.875 M-172.328125 149.625 C-172.328125 138.6550053900576, -172.328125 127.68501078011519, -172.328125 106.875" stroke="#B75C75" stroke-width="1.3" fill="none" stroke-dasharray="0 0"/></g><g class="label name" transform="translate(-67.5703125, -140.25)" style=""><foreignObject width="135.140625" height="24"><div xmlns="http://www.w3.org/1999/xhtml" style="display: table-cell; white-space: nowrap; line-height: 1.5; max-width: 236px; text-align: start;"><span class="nodeLabel"><p>CASH_REGISTER</p></span></div></foreignObject></g><g class="label attribute-type" transform="translate(-153.578125, -97.5)" style=""><foreignObject width="39.125" height="24"><div xmlns="http://www.w3.org/1999/xhtml" style="display: table-cell; white-space: nowrap; line-height: 1.5; max-width: 139px; text-align: start;"><span class="nodeLabel"><p>string</p></span></div></foreignObject></g><g class="label attribute-name" transform="translate(-60.9375, -97.5)" style=""><foreignObject width="12.453125" height="24"><div xmlns="http://www.w3.org/1999/xhtml" style="display: table-cell; white-space: nowrap; line-height: 1.5; max-width: 113px; text-align: start;"><span class="nodeLabel"><p>id</p></span></div></foreignObject></g><g class="label attribute-keys" transform="translate(132.234375, -97.5)" style=""><foreignObject width="21.34375" height="24"><div xmlns="http://www.w3.org/1999/xhtml" style="display: table-cell; white-space: nowrap; line-height: 1.5; max-width: 123px; text-align: start;"><span class="nodeLabel"><p>PK</p></span></div></foreignObject></g><g class="label attribute-comment" transform="translate(191.078125, -97.5)" style=""><foreignObject width="0" height="0"><div xmlns="http://www.w3.org/1999/xhtml" style="display: table-cell; white-space: nowrap; line-height: 1.5; max-width: 100px; text-align: start;"><span class="nodeLabel"></span></div></foreignObject></g><g class="label attribute-type" transform="translate(-153.578125, -54.75)" style=""><foreignObject width="39.125" height="24"><div xmlns="http://www.w3.org/1999/xhtml" style="display: table-cell; white-space: nowrap; line-height: 1.5; max-width: 139px; text-align: start;"><span class="nodeLabel"><p>string</p></span></div></foreignObject></g><g class="label attribute-name" transform="translate(-60.9375, -54.75)" style=""><foreignObject width="99.625" height="24"><div xmlns="http://www.w3.org/1999/xhtml" style="display: table-cell; white-space: nowrap; line-height: 1.5; max-width: 200px; text-align: start;"><span class="nodeLabel"><p>professionalId</p></span></div></foreignObject></g><g class="label attribute-keys" transform="translate(132.234375, -54.75)" style=""><foreignObject width="20.453125" height="24"><div xmlns="http://www.w3.org/1999/xhtml" style="display: table-cell; white-space: nowrap; line-height: 1.5; max-width: 122px; text-align: start;"><span class="nodeLabel"><p>FK</p></span></div></foreignObject></g><g class="label attribute-comment" transform="translate(191.078125, -54.75)" style=""><foreignObject width="0" height="0"><div xmlns="http://www.w3.org/1999/xhtml" style="display: table-cell; white-space: nowrap; line-height: 1.5; max-width: 100px; text-align: start;"><span class="nodeLabel"></span></div></foreignObject></g><g class="label attribute-type" transform="translate(-153.578125, -12)" style=""><foreignObject width="31.140625" height="24"><div xmlns="http://www.w3.org/1999/xhtml" style="display: table-cell; white-space: nowrap; line-height: 1.5; max-width: 131px; text-align: start;"><span class="nodeLabel"><p>date</p></span></div></foreignObject></g><g class="label attribute-name" transform="translate(-60.9375, -12)" style=""><foreignObject width="87.15625" height="24"><div xmlns="http://www.w3.org/1999/xhtml" style="display: table-cell; white-space: nowrap; line-height: 1.5; max-width: 187px; text-align: start;"><span class="nodeLabel"><p>registerDate</p></span></div></foreignObject></g><g class="label attribute-keys" transform="translate(132.234375, -12)" style=""><foreignObject width="0" height="0"><div xmlns="http://www.w3.org/1999/xhtml" style="display: table-cell; white-space: nowrap; line-height: 1.5; max-width: 100px; text-align: start;"><span class="nodeLabel"></span></div></foreignObject></g><g class="label attribute-comment" transform="translate(191.078125, -12)" style=""><foreignObject width="0" height="0"><div xmlns="http://www.w3.org/1999/xhtml" style="display: table-cell; white-space: nowrap; line-height: 1.5; max-width: 100px; text-align: start;"><span class="nodeLabel"></span></div></foreignObject></g><g class="label attribute-type" transform="translate(-153.578125, 30.75)" style=""><foreignObject width="40.03125" height="24"><div xmlns="http://www.w3.org/1999/xhtml" style="display: table-cell; white-space: nowrap; line-height: 1.5; max-width: 140px; text-align: start;"><span class="nodeLabel"><p>enum</p></span></div></foreignObject></g><g class="label attribute-name" transform="translate(-60.9375, 30.75)" style=""><foreignObject width="42.6875" height="24"><div xmlns="http://www.w3.org/1999/xhtml" style="display: table-cell; white-space: nowrap; line-height: 1.5; max-width: 143px; text-align: start;"><span class="nodeLabel"><p>status</p></span></div></foreignObject></g><g class="label attribute-keys" transform="translate(132.234375, 30.75)" style=""><foreignObject width="0" height="0"><div xmlns="http://www.w3.org/1999/xhtml" style="display: table-cell; white-space: nowrap; line-height: 1.5; max-width: 100px; text-align: start;"><span class="nodeLabel"></span></div></foreignObject></g><g class="label attribute-comment" transform="translate(191.078125, 30.75)" style=""><foreignObject width="0" height="0"><div xmlns="http://www.w3.org/1999/xhtml" style="display: table-cell; white-space: nowrap; line-height: 1.5; max-width: 100px; text-align: start;"><span class="nodeLabel"></span></div></foreignObject></g><g class="label attribute-type" transform="translate(-153.578125, 73.5)" style=""><foreignObject width="55.140625" height="24"><div xmlns="http://www.w3.org/1999/xhtml" style="display: table-cell; white-space: nowrap; line-height: 1.5; max-width: 155px; text-align: start;"><span class="nodeLabel"><p>decimal</p></span></div></foreignObject></g><g class="label attribute-name" transform="translate(-60.9375, 73.5)" style=""><foreignObject width="112.09375" height="24"><div xmlns="http://www.w3.org/1999/xhtml" style="display: table-cell; white-space: nowrap; line-height: 1.5; max-width: 213px; text-align: start;"><span class="nodeLabel"><p>openingAmount</p></span></div></foreignObject></g><g class="label attribute-keys" transform="translate(132.234375, 73.5)" style=""><foreignObject width="0" height="0"><div xmlns="http://www.w3.org/1999/xhtml" style="display: table-cell; white-space: nowrap; line-height: 1.5; max-width: 100px; text-align: start;"><span class="nodeLabel"></span></div></foreignObject></g><g class="label attribute-comment" transform="translate(191.078125, 73.5)" style=""><foreignObject width="0" height="0"><div xmlns="http://www.w3.org/1999/xhtml" style="display: table-cell; white-space: nowrap; line-height: 1.5; max-width: 100px; text-align: start;"><span class="nodeLabel"></span></div></foreignObject></g><g class="label attribute-type" transform="translate(-153.578125, 116.25)" style=""><foreignObject width="55.140625" height="24"><div xmlns="http://www.w3.org/1999/xhtml" style="display: table-cell; white-space: nowrap; line-height: 1.5; max-width: 155px; text-align: start;"><span class="nodeLabel"><p>decimal</p></span></div></foreignObject></g><g class="label attribute-name" transform="translate(-60.9375, 116.25)" style=""><foreignObject width="155.671875" height="24"><div xmlns="http://www.w3.org/1999/xhtml" style="display: table-cell; white-space: nowrap; line-height: 1.5; max-width: 257px; text-align: start;"><span class="nodeLabel"><p>totalBalanceSnapshot</p></span></div></foreignObject></g><g class="label attribute-keys" transform="translate(132.234375, 116.25)" style=""><foreignObject width="0" height="0"><div xmlns="http://www.w3.org/1999/xhtml" style="display: table-cell; white-space: nowrap; line-height: 1.5; max-width: 100px; text-align: start;"><span class="nodeLabel"></span></div></foreignObject></g><g class="label attribute-comment" transform="translate(191.078125, 116.25)" style=""><foreignObject width="0" height="0"><div xmlns="http://www.w3.org/1999/xhtml" style="display: table-cell; white-space: nowrap; line-height: 1.5; max-width: 100px; text-align: start;"><span class="nodeLabel"></span></div></foreignObject></g><g class="divider"><path d="M-172.328125 -106.87505 L-172.328125 -106.87495 L172.328125 -106.87495 L172.328125 -106.87505" stroke="none" stroke-width="0" fill="#F8E8ED" fill-rule="evenodd"/><path d="M-172.328125 -106.87505 C-172.328125 -106.87502851560653, -172.328125 -106.87500703121307, -172.328125 -106.87495 M-172.328125 -106.87505 C-172.328125 -106.87502620148395, -172.328125 -106.8750024029679, -172.328125 -106.87495 M-172.328125 -106.87495 C-74.15801393997916 -106.87495, 24.012097120041688 -106.87495, 172.328125 -106.87495 M-172.328125 -106.87495 C-99.65279069784603 -106.87495, -26.97745639569206 -106.87495, 172.328125 -106.87495 M172.328125 -106.87495 C172.328125 -106.87497760165537, 172.328125 -106.87500520331075, 172.328125 -106.87505 M172.328125 -106.87495 C172.328125 -106.87497145433831, 172.328125 -106.8749929086766, 172.328125 -106.87505 M172.328125 -106.87505 C96.76039360440897 -106.87505, 21.19266220881795 -106.87505, -172.328125 -106.87505 M172.328125 -106.87505 C41.80513077248338 -106.87505, -88.71786345503324 -106.87505, -172.328125 -106.87505" stroke="#B75C75" stroke-width="1.3" fill="none" stroke-dasharray="0 0"/></g><g class="divider"><path d="M-79.68755 -106.875 L-79.68745 -106.875 L-79.68745 149.625 L-79.68755 149.625" stroke="none" stroke-width="0" fill="#F8E8ED" fill-rule="evenodd"/><path d="M-79.68755 -106.875 C-79.68751179269162 -106.875, -79.68747358538323 -106.875, -79.68745 -106.875 M-79.68755 -106.875 C-79.6875168191729 -106.875, -79.6874836383458 -106.875, -79.68745 -106.875 M-79.68745 -106.875 C-79.68745 -32.953441426949254, -79.68745 40.96811714610149, -79.68745 149.625 M-79.68745 -106.875 C-79.68745 -50.68318509990003, -79.68745 5.508629800199941, -79.68745 149.625 M-79.68745 149.625 C-79.68747839703876 149.625, -79.68750679407752 149.625, -79.68755 149.625 M-79.68745 149.625 C-79.68748238276525 149.625, -79.68751476553051 149.625, -79.68755 149.625 M-79.68755 149.625 C-79.68755 54.0105955900123, -79.68755 -41.6038088199754, -79.68755 -106.875 M-79.68755 149.625 C-79.68755 72.26830986633627, -79.68755 -5.088380267327466, -79.68755 -106.875" stroke="#B75C75" stroke-width="1.3" fill="none" stroke-dasharray="0 0"/></g><g class="divider"><path d="M113.484325 -106.875 L113.484425 -106.875 L113.484425 149.625 L113.484325 149.625" stroke="none" stroke-width="0" fill="#F8E8ED" fill-rule="evenodd"/><path d="M113.484325 -106.875 C113.48434917018204 -106.875, 113.48437334036409 -106.875, 113.484425 -106.875 M113.484325 -106.875 C113.4843491903172 -106.875, 113.48437338063441 -106.875, 113.484425 -106.875 M113.484425 -106.875 C113.484425 -4.700956626648548, 113.484425 97.4730867467029, 113.484425 149.625 M113.484425 -106.875 C113.484425 -26.707389828137607, 113.484425 53.460220343724785, 113.484425 149.625 M113.484425 149.625 C113.48439854388073 149.625, 113.48437208776147 149.625, 113.484325 149.625 M113.484425 149.625 C113.48440101716501 149.625, 113.48437703433004 149.625, 113.484325 149.625 M113.484325 149.625 C113.484325 47.05400467038518, 113.484325 -55.516990659229634, 113.484325 -106.875 M113.484325 149.625 C113.484325 84.91108215394618, 113.484325 20.197164307892365, 113.484325 -106.875" stroke="#B75C75" stroke-width="1.3" fill="none" stroke-dasharray="0 0"/></g><g class="divider"><path d="M-172.328125 -106.87505 L-172.328125 -106.87495 L172.328125 -106.87495 L172.328125 -106.87505" stroke="none" stroke-width="0" fill="#F8E8ED" fill-rule="evenodd"/><path d="M-172.328125 -106.87505 C-172.328125 -106.87501146138024, -172.328125 -106.87497292276049, -172.328125 -106.87495 M-172.328125 -106.87505 C-172.328125 -106.875027820057, -172.328125 -106.87500564011398, -172.328125 -106.87495 M-172.328125 -106.87495 C-81.14244935573355 -106.87495, 10.043226288532907 -106.87495, 172.328125 -106.87495 M-172.328125 -106.87495 C-66.12889690898055 -106.87495, 40.0703311820389 -106.87495, 172.328125 -106.87495 M172.328125 -106.87495 C172.328125 -106.87498987662921, 172.328125 -106.87502975325845, 172.328125 -106.87505 M172.328125 -106.87495 C172.328125 -106.87497299767303, 172.328125 -106.87499599534604, 172.328125 -106.87505 M172.328125 -106.87505 C91.21392266038224 -106.87505, 10.099720320764476 -106.87505, -172.328125 -106.87505 M172.328125 -106.87505 C88.0703372556192 -106.87505, 3.8125495112383874 -106.87505, -172.328125 -106.87505" stroke="#B75C75" stroke-width="1.3" fill="none" stroke-dasharray="0 0"/></g></g><g class="node default" id="my-svg-entity-PROFESSIONAL-5" data-look="classic" transform="translate(1524.515625, 65)"><rect class="basic label-container" style="" x="-92.2421875" y="-57" width="184.484375" height="114"/><g class="label" style="" transform="translate(-62.2421875, -12)"><rect/><foreignObject width="124.484375" height="24"><div xmlns="http://www.w3.org/1999/xhtml" style="display: table-cell; white-space: nowrap; line-height: 1.5; max-width: 200px; text-align: center;"><span class="nodeLabel markdown-node-label"><p>PROFESSIONAL</p></span></div></foreignObject></g></g><g class="node default" id="my-svg-entity-CASH_MOVEMENT-6" data-look="classic" transform="translate(769.41796875, 879.75)"><g class="outer-path" style=""><path d="M-154.9765625 -213.75 L154.9765625 -213.75 L154.9765625 213.75 L-154.9765625 213.75" stroke="none" stroke-width="0" fill="#F8E8ED"/><path d="M-154.9765625 -213.75 C-43.85484817809139 -213.75, 67.26686614381723 -213.75, 154.9765625 -213.75 M-154.9765625 -213.75 C-37.3185523065538 -213.75, 80.3394578868924 -213.75, 154.9765625 -213.75 M154.9765625 -213.75 C154.9765625 -68.88858684605421, 154.9765625 75.97282630789158, 154.9765625 213.75 M154.9765625 -213.75 C154.9765625 -125.42658994927372, 154.9765625 -37.10317989854744, 154.9765625 213.75 M154.9765625 213.75 C48.52238134014975 213.75, -57.9317998197005 213.75, -154.9765625 213.75 M154.9765625 213.75 C31.16845900968211 213.75, -92.63964448063578 213.75, -154.9765625 213.75 M-154.9765625 213.75 C-154.9765625 74.66719737311942, -154.9765625 -64.41560525376116, -154.9765625 -213.75 M-154.9765625 213.75 C-154.9765625 83.48240774699883, -154.9765625 -46.78518450600234, -154.9765625 -213.75" stroke="#B75C75" stroke-width="1.3" fill="none" stroke-dasharray="0 0"/></g><g style="" class="row-rect-odd"><path d="M-154.9765625 -171 L154.9765625 -171 L154.9765625 -128.25 L-154.9765625 -128.25" stroke="none" stroke-width="0" fill="hsl(341.25, 53.3333333333%, 100%)"/><path d="M-154.9765625 -171 C-53.808202587017746 -171, 47.36015732596451 -171, 154.9765625 -171 M-154.9765625 -171 C-50.10843725894732 -171, 54.75968798210536 -171, 154.9765625 -171 M154.9765625 -171 C154.9765625 -160.64522635683724, 154.9765625 -150.29045271367448, 154.9765625 -128.25 M154.9765625 -171 C154.9765625 -159.25851176219487, 154.9765625 -147.51702352438974, 154.9765625 -128.25 M154.9765625 -128.25 C38.40013414895603 -128.25, -78.17629420208794 -128.25, -154.9765625 -128.25 M154.9765625 -128.25 C91.91320651810597 -128.25, 28.84985053621193 -128.25, -154.9765625 -128.25 M-154.9765625 -128.25 C-154.9765625 -140.9427861831514, -154.9765625 -153.63557236630282, -154.9765625 -171 M-154.9765625 -128.25 C-154.9765625 -141.51142984901256, -154.9765625 -154.7728596980251, -154.9765625 -171" stroke="#B75C75" stroke-width="1.3" fill="none" stroke-dasharray="0 0"/></g><g style="" class="row-rect-even"><path d="M-154.9765625 -128.25 L154.9765625 -128.25 L154.9765625 -85.5 L-154.9765625 -85.5" stroke="none" stroke-width="0" fill="hsl(341.25, 53.3333333333%, 99.1176470588%)"/><path d="M-154.9765625 -128.25 C-88.51773094087045 -128.25, -22.0588993817409 -128.25, 154.9765625 -128.25 M-154.9765625 -128.25 C-38.575438639393354 -128.25, 77.82568522121329 -128.25, 154.9765625 -128.25 M154.9765625 -128.25 C154.9765625 -116.54125763959487, 154.9765625 -104.83251527918975, 154.9765625 -85.5 M154.9765625 -128.25 C154.9765625 -112.85679691599168, 154.9765625 -97.46359383198336, 154.9765625 -85.5 M154.9765625 -85.5 C80.27931688669128 -85.5, 5.582071273382553 -85.5, -154.9765625 -85.5 M154.9765625 -85.5 C79.76497119137753 -85.5, 4.553379882755053 -85.5, -154.9765625 -85.5 M-154.9765625 -85.5 C-154.9765625 -97.64893066382479, -154.9765625 -109.79786132764957, -154.9765625 -128.25 M-154.9765625 -85.5 C-154.9765625 -99.02230123844006, -154.9765625 -112.54460247688012, -154.9765625 -128.25" stroke="#B75C75" stroke-width="1.3" fill="none" stroke-dasharray="0 0"/></g><g style="" class="row-rect-odd"><path d="M-154.9765625 -85.5 L154.9765625 -85.5 L154.9765625 -42.75 L-154.9765625 -42.75" stroke="none" stroke-width="0" fill="hsl(341.25, 53.3333333333%, 100%)"/><path d="M-154.9765625 -85.5 C-72.58842183029662 -85.5, 9.79971883940675 -85.5, 154.9765625 -85.5 M-154.9765625 -85.5 C-83.4418251803242 -85.5, -11.907087860648403 -85.5, 154.9765625 -85.5 M154.9765625 -85.5 C154.9765625 -72.68532716700834, 154.9765625 -59.87065433401667, 154.9765625 -42.75 M154.9765625 -85.5 C154.9765625 -76.39826561570116, 154.9765625 -67.29653123140231, 154.9765625 -42.75 M154.9765625 -42.75 C62.70421726436517 -42.75, -29.56812797126966 -42.75, -154.9765625 -42.75 M154.9765625 -42.75 C77.11848636273861 -42.75, -0.7395897745227842 -42.75, -154.9765625 -42.75 M-154.9765625 -42.75 C-154.9765625 -59.31259696094459, -154.9765625 -75.87519392188918, -154.9765625 -85.5 M-154.9765625 -42.75 C-154.9765625 -51.62890797121118, -154.9765625 -60.50781594242235, -154.9765625 -85.5" stroke="#B75C75" stroke-width="1.3" fill="none" stroke-dasharray="0 0"/></g><g style="" class="row-rect-even"><path d="M-154.9765625 -42.75 L154.9765625 -42.75 L154.9765625 0 L-154.9765625 0" stroke="none" stroke-width="0" fill="hsl(341.25, 53.3333333333%, 99.1176470588%)"/><path d="M-154.9765625 -42.75 C-69.57979639952352 -42.75, 15.816969700952967 -42.75, 154.9765625 -42.75 M-154.9765625 -42.75 C-51.24167234602599 -42.75, 52.493217807948014 -42.75, 154.9765625 -42.75 M154.9765625 -42.75 C154.9765625 -27.915127568856917, 154.9765625 -13.08025513771383, 154.9765625 0 M154.9765625 -42.75 C154.9765625 -33.1731513317923, 154.9765625 -23.59630266358459, 154.9765625 0 M154.9765625 0 C43.99990932155619 0, -66.97674385688762 0, -154.9765625 0 M154.9765625 0 C59.001487546262524 0, -36.97358740747495 0, -154.9765625 0 M-154.9765625 0 C-154.9765625 -9.550121850154161, -154.9765625 -19.100243700308322, -154.9765625 -42.75 M-154.9765625 0 C-154.9765625 -11.45426001375603, -154.9765625 -22.90852002751206, -154.9765625 -42.75" stroke="#B75C75" stroke-width="1.3" fill="none" stroke-dasharray="0 0"/></g><g style="" class="row-rect-odd"><path d="M-154.9765625 0 L154.9765625 0 L154.9765625 42.75 L-154.9765625 42.75" stroke="none" stroke-width="0" fill="hsl(341.25, 53.3333333333%, 100%)"/><path d="M-154.9765625 0 C-81.79619972552017 0, -8.615836951040336 0, 154.9765625 0 M-154.9765625 0 C-80.52841646852698 0, -6.080270437053969 0, 154.9765625 0 M154.9765625 0 C154.9765625 9.98551901625656, 154.9765625 19.97103803251312, 154.9765625 42.75 M154.9765625 0 C154.9765625 13.281373483348904, 154.9765625 26.56274696669781, 154.9765625 42.75 M154.9765625 42.75 C48.24585635964094 42.75, -58.48484978071812 42.75, -154.9765625 42.75 M154.9765625 42.75 C39.16747961929045 42.75, -76.6416032614191 42.75, -154.9765625 42.75 M-154.9765625 42.75 C-154.9765625 26.742715067837633, -154.9765625 10.735430135675266, -154.9765625 0 M-154.9765625 42.75 C-154.9765625 28.03722328230996, -154.9765625 13.324446564619922, -154.9765625 0" stroke="#B75C75" stroke-width="1.3" fill="none" stroke-dasharray="0 0"/></g><g style="" class="row-rect-even"><path d="M-154.9765625 42.75 L154.9765625 42.75 L154.9765625 85.5 L-154.9765625 85.5" stroke="none" stroke-width="0" fill="hsl(341.25, 53.3333333333%, 99.1176470588%)"/><path d="M-154.9765625 42.75 C-41.36954789161139 42.75, 72.23746671677722 42.75, 154.9765625 42.75 M-154.9765625 42.75 C-57.5813486609578 42.75, 39.8138651780844 42.75, 154.9765625 42.75 M154.9765625 42.75 C154.9765625 55.81399219939864, 154.9765625 68.87798439879728, 154.9765625 85.5 M154.9765625 42.75 C154.9765625 51.78434318742144, 154.9765625 60.81868637484288, 154.9765625 85.5 M154.9765625 85.5 C67.7473840684341 85.5, -19.481794363131797 85.5, -154.9765625 85.5 M154.9765625 85.5 C80.53606775331671 85.5, 6.09557300663343 85.5, -154.9765625 85.5 M-154.9765625 85.5 C-154.9765625 73.43929367455927, -154.9765625 61.37858734911854, -154.9765625 42.75 M-154.9765625 85.5 C-154.9765625 74.06360239742556, -154.9765625 62.627204794851096, -154.9765625 42.75" stroke="#B75C75" stroke-width="1.3" fill="none" stroke-dasharray="0 0"/></g><g style="" class="row-rect-odd"><path d="M-154.9765625 85.5 L154.9765625 85.5 L154.9765625 128.25 L-154.9765625 128.25" stroke="none" stroke-width="0" fill="hsl(341.25, 53.3333333333%, 100%)"/><path d="M-154.9765625 85.5 C-56.97690533763577 85.5, 41.02275182472846 85.5, 154.9765625 85.5 M-154.9765625 85.5 C-63.841437271661206 85.5, 27.293687956677587 85.5, 154.9765625 85.5 M154.9765625 85.5 C154.9765625 102.22145082063909, 154.9765625 118.9429016412782, 154.9765625 128.25 M154.9765625 85.5 C154.9765625 100.87333897003882, 154.9765625 116.24667794007762, 154.9765625 128.25 M154.9765625 128.25 C51.54718258517288 128.25, -51.88219732965425 128.25, -154.9765625 128.25 M154.9765625 128.25 C32.985655195368565 128.25, -89.00525210926287 128.25, -154.9765625 128.25 M-154.9765625 128.25 C-154.9765625 118.5374602293724, -154.9765625 108.8249204587448, -154.9765625 85.5 M-154.9765625 128.25 C-154.9765625 112.98874973505167, -154.9765625 97.72749947010334, -154.9765625 85.5" stroke="#B75C75" stroke-width="1.3" fill="none" stroke-dasharray="0 0"/></g><g style="" class="row-rect-even"><path d="M-154.9765625 128.25 L154.9765625 128.25 L154.9765625 171 L-154.9765625 171" stroke="none" stroke-width="0" fill="hsl(341.25, 53.3333333333%, 99.1176470588%)"/><path d="M-154.9765625 128.25 C-85.9511993853335 128.25, -16.92583627066699 128.25, 154.9765625 128.25 M-154.9765625 128.25 C-47.517227357129556 128.25, 59.94210778574089 128.25, 154.9765625 128.25 M154.9765625 128.25 C154.9765625 138.7903477060481, 154.9765625 149.3306954120962, 154.9765625 171 M154.9765625 128.25 C154.9765625 139.7231661804555, 154.9765625 151.19633236091101, 154.9765625 171 M154.9765625 171 C58.30807440837157 171, -38.360413683256866 171, -154.9765625 171 M154.9765625 171 C59.569433357555724 171, -35.83769578488855 171, -154.9765625 171 M-154.9765625 171 C-154.9765625 155.9481931486033, -154.9765625 140.89638629720665, -154.9765625 128.25 M-154.9765625 171 C-154.9765625 162.07554684541236, -154.9765625 153.1510936908247, -154.9765625 128.25" stroke="#B75C75" stroke-width="1.3" fill="none" stroke-dasharray="0 0"/></g><g style="" class="row-rect-odd"><path d="M-154.9765625 171 L154.9765625 171 L154.9765625 213.75 L-154.9765625 213.75" stroke="none" stroke-width="0" fill="hsl(341.25, 53.3333333333%, 100%)"/><path d="M-154.9765625 171 C-44.281419699597066 171, 66.41372310080587 171, 154.9765625 171 M-154.9765625 171 C-51.6966242041409 171, 51.583314091718194 171, 154.9765625 171 M154.9765625 171 C154.9765625 184.81853176083098, 154.9765625 198.63706352166196, 154.9765625 213.75 M154.9765625 171 C154.9765625 181.92325291380828, 154.9765625 192.84650582761657, 154.9765625 213.75 M154.9765625 213.75 C33.23039154721506 213.75, -88.51577940556987 213.75, -154.9765625 213.75 M154.9765625 213.75 C77.97720537521813 213.75, 0.9778482504362671 213.75, -154.9765625 213.75 M-154.9765625 213.75 C-154.9765625 198.5057533864779, -154.9765625 183.26150677295576, -154.9765625 171 M-154.9765625 213.75 C-154.9765625 202.25099641744578, -154.9765625 190.75199283489155, -154.9765625 171" stroke="#B75C75" stroke-width="1.3" fill="none" stroke-dasharray="0 0"/></g><g class="label name" transform="translate(-72.8984375, -204.375)" style=""><foreignObject width="145.796875" height="24"><div xmlns="http://www.w3.org/1999/xhtml" style="display: table-cell; white-space: nowrap; line-height: 1.5; max-width: 246px; text-align: start;"><span class="nodeLabel"><p>CASH_MOVEMENT</p></span></div></foreignObject></g><g class="label attribute-type" transform="translate(-136.2265625, -161.625)" style=""><foreignObject width="39.125" height="24"><div xmlns="http://www.w3.org/1999/xhtml" style="display: table-cell; white-space: nowrap; line-height: 1.5; max-width: 139px; text-align: start;"><span class="nodeLabel"><p>string</p></span></div></foreignObject></g><g class="label attribute-name" transform="translate(-37.3515625, -161.625)" style=""><foreignObject width="12.453125" height="24"><div xmlns="http://www.w3.org/1999/xhtml" style="display: table-cell; white-space: nowrap; line-height: 1.5; max-width: 113px; text-align: start;"><span class="nodeLabel"><p>id</p></span></div></foreignObject></g><g class="label attribute-keys" transform="translate(114.8828125, -161.625)" style=""><foreignObject width="21.34375" height="24"><div xmlns="http://www.w3.org/1999/xhtml" style="display: table-cell; white-space: nowrap; line-height: 1.5; max-width: 123px; text-align: start;"><span class="nodeLabel"><p>PK</p></span></div></foreignObject></g><g class="label attribute-comment" transform="translate(173.7265625, -161.625)" style=""><foreignObject width="0" height="0"><div xmlns="http://www.w3.org/1999/xhtml" style="display: table-cell; white-space: nowrap; line-height: 1.5; max-width: 100px; text-align: start;"><span class="nodeLabel"></span></div></foreignObject></g><g class="label attribute-type" transform="translate(-136.2265625, -118.875)" style=""><foreignObject width="39.125" height="24"><div xmlns="http://www.w3.org/1999/xhtml" style="display: table-cell; white-space: nowrap; line-height: 1.5; max-width: 139px; text-align: start;"><span class="nodeLabel"><p>string</p></span></div></foreignObject></g><g class="label attribute-name" transform="translate(-37.3515625, -118.875)" style=""><foreignObject width="99.625" height="24"><div xmlns="http://www.w3.org/1999/xhtml" style="display: table-cell; white-space: nowrap; line-height: 1.5; max-width: 200px; text-align: start;"><span class="nodeLabel"><p>professionalId</p></span></div></foreignObject></g><g class="label attribute-keys" transform="translate(114.8828125, -118.875)" style=""><foreignObject width="20.453125" height="24"><div xmlns="http://www.w3.org/1999/xhtml" style="display: table-cell; white-space: nowrap; line-height: 1.5; max-width: 122px; text-align: start;"><span class="nodeLabel"><p>FK</p></span></div></foreignObject></g><g class="label attribute-comment" transform="translate(173.7265625, -118.875)" style=""><foreignObject width="0" height="0"><div xmlns="http://www.w3.org/1999/xhtml" style="display: table-cell; white-space: nowrap; line-height: 1.5; max-width: 100px; text-align: start;"><span class="nodeLabel"></span></div></foreignObject></g><g class="label attribute-type" transform="translate(-136.2265625, -76.125)" style=""><foreignObject width="39.125" height="24"><div xmlns="http://www.w3.org/1999/xhtml" style="display: table-cell; white-space: nowrap; line-height: 1.5; max-width: 139px; text-align: start;"><span class="nodeLabel"><p>string</p></span></div></foreignObject></g><g class="label attribute-name" transform="translate(-37.3515625, -76.125)" style=""><foreignObject width="54.265625" height="24"><div xmlns="http://www.w3.org/1999/xhtml" style="display: table-cell; white-space: nowrap; line-height: 1.5; max-width: 154px; text-align: start;"><span class="nodeLabel"><p>billingId</p></span></div></foreignObject></g><g class="label attribute-keys" transform="translate(114.8828125, -76.125)" style=""><foreignObject width="20.453125" height="24"><div xmlns="http://www.w3.org/1999/xhtml" style="display: table-cell; white-space: nowrap; line-height: 1.5; max-width: 122px; text-align: start;"><span class="nodeLabel"><p>FK</p></span></div></foreignObject></g><g class="label attribute-comment" transform="translate(173.7265625, -76.125)" style=""><foreignObject width="0" height="0"><div xmlns="http://www.w3.org/1999/xhtml" style="display: table-cell; white-space: nowrap; line-height: 1.5; max-width: 100px; text-align: start;"><span class="nodeLabel"></span></div></foreignObject></g><g class="label attribute-type" transform="translate(-136.2265625, -33.375)" style=""><foreignObject width="39.125" height="24"><div xmlns="http://www.w3.org/1999/xhtml" style="display: table-cell; white-space: nowrap; line-height: 1.5; max-width: 139px; text-align: start;"><span class="nodeLabel"><p>string</p></span></div></foreignObject></g><g class="label attribute-name" transform="translate(-37.3515625, -33.375)" style=""><foreignObject width="106.71875" height="24"><div xmlns="http://www.w3.org/1999/xhtml" style="display: table-cell; white-space: nowrap; line-height: 1.5; max-width: 207px; text-align: start;"><span class="nodeLabel"><p>cashRegisterId</p></span></div></foreignObject></g><g class="label attribute-keys" transform="translate(114.8828125, -33.375)" style=""><foreignObject width="20.453125" height="24"><div xmlns="http://www.w3.org/1999/xhtml" style="display: table-cell; white-space: nowrap; line-height: 1.5; max-width: 122px; text-align: start;"><span class="nodeLabel"><p>FK</p></span></div></foreignObject></g><g class="label attribute-comment" transform="translate(173.7265625, -33.375)" style=""><foreignObject width="0" height="0"><div xmlns="http://www.w3.org/1999/xhtml" style="display: table-cell; white-space: nowrap; line-height: 1.5; max-width: 100px; text-align: start;"><span class="nodeLabel"></span></div></foreignObject></g><g class="label attribute-type" transform="translate(-136.2265625, 9.375)" style=""><foreignObject width="40.03125" height="24"><div xmlns="http://www.w3.org/1999/xhtml" style="display: table-cell; white-space: nowrap; line-height: 1.5; max-width: 140px; text-align: start;"><span class="nodeLabel"><p>enum</p></span></div></foreignObject></g><g class="label attribute-name" transform="translate(-37.3515625, 9.375)" style=""><foreignObject width="30.25" height="24"><div xmlns="http://www.w3.org/1999/xhtml" style="display: table-cell; white-space: nowrap; line-height: 1.5; max-width: 131px; text-align: start;"><span class="nodeLabel"><p>type</p></span></div></foreignObject></g><g class="label attribute-keys" transform="translate(114.8828125, 9.375)" style=""><foreignObject width="0" height="0"><div xmlns="http://www.w3.org/1999/xhtml" style="display: table-cell; white-space: nowrap; line-height: 1.5; max-width: 100px; text-align: start;"><span class="nodeLabel"></span></div></foreignObject></g><g class="label attribute-comment" transform="translate(173.7265625, 9.375)" style=""><foreignObject width="0" height="0"><div xmlns="http://www.w3.org/1999/xhtml" style="display: table-cell; white-space: nowrap; line-height: 1.5; max-width: 100px; text-align: start;"><span class="nodeLabel"></span></div></foreignObject></g><g class="label attribute-type" transform="translate(-136.2265625, 52.125)" style=""><foreignObject width="40.03125" height="24"><div xmlns="http://www.w3.org/1999/xhtml" style="display: table-cell; white-space: nowrap; line-height: 1.5; max-width: 140px; text-align: start;"><span class="nodeLabel"><p>enum</p></span></div></foreignObject></g><g class="label attribute-name" transform="translate(-37.3515625, 52.125)" style=""><foreignObject width="42.6875" height="24"><div xmlns="http://www.w3.org/1999/xhtml" style="display: table-cell; white-space: nowrap; line-height: 1.5; max-width: 143px; text-align: start;"><span class="nodeLabel"><p>status</p></span></div></foreignObject></g><g class="label attribute-keys" transform="translate(114.8828125, 52.125)" style=""><foreignObject width="0" height="0"><div xmlns="http://www.w3.org/1999/xhtml" style="display: table-cell; white-space: nowrap; line-height: 1.5; max-width: 100px; text-align: start;"><span class="nodeLabel"></span></div></foreignObject></g><g class="label attribute-comment" transform="translate(173.7265625, 52.125)" style=""><foreignObject width="0" height="0"><div xmlns="http://www.w3.org/1999/xhtml" style="display: table-cell; white-space: nowrap; line-height: 1.5; max-width: 100px; text-align: start;"><span class="nodeLabel"></span></div></foreignObject></g><g class="label attribute-type" transform="translate(-136.2265625, 94.875)" style=""><foreignObject width="40.03125" height="24"><div xmlns="http://www.w3.org/1999/xhtml" style="display: table-cell; white-space: nowrap; line-height: 1.5; max-width: 140px; text-align: start;"><span class="nodeLabel"><p>enum</p></span></div></foreignObject></g><g class="label attribute-name" transform="translate(-37.3515625, 94.875)" style=""><foreignObject width="114.734375" height="24"><div xmlns="http://www.w3.org/1999/xhtml" style="display: table-cell; white-space: nowrap; line-height: 1.5; max-width: 215px; text-align: start;"><span class="nodeLabel"><p>paymentMethod</p></span></div></foreignObject></g><g class="label attribute-keys" transform="translate(114.8828125, 94.875)" style=""><foreignObject width="0" height="0"><div xmlns="http://www.w3.org/1999/xhtml" style="display: table-cell; white-space: nowrap; line-height: 1.5; max-width: 100px; text-align: start;"><span class="nodeLabel"></span></div></foreignObject></g><g class="label attribute-comment" transform="translate(173.7265625, 94.875)" style=""><foreignObject width="0" height="0"><div xmlns="http://www.w3.org/1999/xhtml" style="display: table-cell; white-space: nowrap; line-height: 1.5; max-width: 100px; text-align: start;"><span class="nodeLabel"></span></div></foreignObject></g><g class="label attribute-type" transform="translate(-136.2265625, 137.625)" style=""><foreignObject width="55.140625" height="24"><div xmlns="http://www.w3.org/1999/xhtml" style="display: table-cell; white-space: nowrap; line-height: 1.5; max-width: 155px; text-align: start;"><span class="nodeLabel"><p>decimal</p></span></div></foreignObject></g><g class="label attribute-name" transform="translate(-37.3515625, 137.625)" style=""><foreignObject width="53.375" height="24"><div xmlns="http://www.w3.org/1999/xhtml" style="display: table-cell; white-space: nowrap; line-height: 1.5; max-width: 154px; text-align: start;"><span class="nodeLabel"><p>amount</p></span></div></foreignObject></g><g class="label attribute-keys" transform="translate(114.8828125, 137.625)" style=""><foreignObject width="0" height="0"><div xmlns="http://www.w3.org/1999/xhtml" style="display: table-cell; white-space: nowrap; line-height: 1.5; max-width: 100px; text-align: start;"><span class="nodeLabel"></span></div></foreignObject></g><g class="label attribute-comment" transform="translate(173.7265625, 137.625)" style=""><foreignObject width="0" height="0"><div xmlns="http://www.w3.org/1999/xhtml" style="display: table-cell; white-space: nowrap; line-height: 1.5; max-width: 100px; text-align: start;"><span class="nodeLabel"></span></div></foreignObject></g><g class="label attribute-type" transform="translate(-136.2265625, 180.375)" style=""><foreignObject width="61.375" height="24"><div xmlns="http://www.w3.org/1999/xhtml" style="display: table-cell; white-space: nowrap; line-height: 1.5; max-width: 161px; text-align: start;"><span class="nodeLabel"><p>datetime</p></span></div></foreignObject></g><g class="label attribute-name" transform="translate(-37.3515625, 180.375)" style=""><foreignObject width="77.375" height="24"><div xmlns="http://www.w3.org/1999/xhtml" style="display: table-cell; white-space: nowrap; line-height: 1.5; max-width: 178px; text-align: start;"><span class="nodeLabel"><p>occurredAt</p></span></div></foreignObject></g><g class="label attribute-keys" transform="translate(114.8828125, 180.375)" style=""><foreignObject width="0" height="0"><div xmlns="http://www.w3.org/1999/xhtml" style="display: table-cell; white-space: nowrap; line-height: 1.5; max-width: 100px; text-align: start;"><span class="nodeLabel"></span></div></foreignObject></g><g class="label attribute-comment" transform="translate(173.7265625, 180.375)" style=""><foreignObject width="0" height="0"><div xmlns="http://www.w3.org/1999/xhtml" style="display: table-cell; white-space: nowrap; line-height: 1.5; max-width: 100px; text-align: start;"><span class="nodeLabel"></span></div></foreignObject></g><g class="divider"><path d="M-154.9765625 -171.00005 L-154.9765625 -170.99995 L154.9765625 -170.99995 L154.9765625 -171.00005" stroke="none" stroke-width="0" fill="#F8E8ED" fill-rule="evenodd"/><path d="M-154.9765625 -171.00005 C-154.9765625 -171.0000280655978, -154.9765625 -171.0000061311956, -154.9765625 -170.99995 M-154.9765625 -171.00005 C-154.9765625 -171.00002159877974, -154.9765625 -170.99999319755946, -154.9765625 -170.99995 M-154.9765625 -170.99995 C-79.96992828705439 -170.99995, -4.963294074108774 -170.99995, 154.9765625 -170.99995 M-154.9765625 -170.99995 C-38.3545285287033 -170.99995, 78.2675054425934 -170.99995, 154.9765625 -170.99995 M154.9765625 -170.99995 C154.9765625 -170.99998193115752, 154.9765625 -171.00001386231503, 154.9765625 -171.00005 M154.9765625 -170.99995 C154.9765625 -170.99997897293866, 154.9765625 -171.00000794587731, 154.9765625 -171.00005 M154.9765625 -171.00005 C41.19395252784257 -171.00005, -72.58865744431486 -171.00005, -154.9765625 -171.00005 M154.9765625 -171.00005 C90.8716832053443 -171.00005, 26.766803910688594 -171.00005, -154.9765625 -171.00005" stroke="#B75C75" stroke-width="1.3" fill="none" stroke-dasharray="0 0"/></g><g class="divider"><path d="M-56.1016125 -171 L-56.1015125 -171 L-56.1015125 213.75 L-56.1016125 213.75" stroke="none" stroke-width="0" fill="#F8E8ED" fill-rule="evenodd"/><path d="M-56.1016125 -171 C-56.10158575014181 -171, -56.10155900028361 -171, -56.1015125 -171 M-56.1016125 -171 C-56.10158524667703 -171, -56.10155799335406 -171, -56.1015125 -171 M-56.1015125 -171 C-56.1015125 -66.67263852505036, -56.1015125 37.65472294989928, -56.1015125 213.75 M-56.1015125 -171 C-56.1015125 -65.16601003656068, -56.1015125 40.667979926878644, -56.1015125 213.75 M-56.1015125 213.75 C-56.10153337364368 213.75, -56.10155424728737 213.75, -56.1016125 213.75 M-56.1015125 213.75 C-56.10153606524863 213.75, -56.101559630497256 213.75, -56.1016125 213.75 M-56.1016125 213.75 C-56.1016125 72.99372688153807, -56.1016125 -67.76254623692387, -56.1016125 -171 M-56.1016125 213.75 C-56.1016125 108.5841727844416, -56.1016125 3.418345568883211, -56.1016125 -171" stroke="#B75C75" stroke-width="1.3" fill="none" stroke-dasharray="0 0"/></g><g class="divider"><path d="M96.1327625 -171 L96.1328625 -171 L96.1328625 213.75 L96.1327625 213.75" stroke="none" stroke-width="0" fill="#F8E8ED" fill-rule="evenodd"/><path d="M96.1327625 -171 C96.13278648081408 -171, 96.13281046162815 -171, 96.1328625 -171 M96.1327625 -171 C96.13278287811389 -171, 96.13280325622777 -171, 96.1328625 -171 M96.1328625 -171 C96.1328625 -81.80022995503658, 96.1328625 7.39954008992683, 96.1328625 213.75 M96.1328625 -171 C96.1328625 -88.84017728217336, 96.1328625 -6.680354564346715, 96.1328625 213.75 M96.1328625 213.75 C96.1328377850223 213.75, 96.13281307004462 213.75, 96.1327625 213.75 M96.1328625 213.75 C96.13282317473445 213.75, 96.13278384946892 213.75, 96.1327625 213.75 M96.1327625 213.75 C96.1327625 93.54876165159317, 96.1327625 -26.652476696813665, 96.1327625 -171 M96.1327625 213.75 C96.1327625 104.77389036405202, 96.1327625 -4.202219271895956, 96.1327625 -171" stroke="#B75C75" stroke-width="1.3" fill="none" stroke-dasharray="0 0"/></g><g class="divider"><path d="M-154.9765625 -171.00005 L-154.9765625 -170.99995 L154.9765625 -170.99995 L154.9765625 -171.00005" stroke="none" stroke-width="0" fill="#F8E8ED" fill-rule="evenodd"/><path d="M-154.9765625 -171.00005 C-154.9765625 -171.0000104662283, -154.9765625 -170.9999709324566, -154.9765625 -170.99995 M-154.9765625 -171.00005 C-154.9765625 -171.00001534921722, -154.9765625 -170.99998069843448, -154.9765625 -170.99995 M-154.9765625 -170.99995 C-61.281071931083005 -170.99995, 32.41441863783399 -170.99995, 154.9765625 -170.99995 M-154.9765625 -170.99995 C-41.63001879632418 -170.99995, 71.71652490735164 -170.99995, 154.9765625 -170.99995 M154.9765625 -170.99995 C154.9765625 -170.99998682669664, 154.9765625 -171.0000236533933, 154.9765625 -171.00005 M154.9765625 -170.99995 C154.9765625 -170.99997840374797, 154.9765625 -171.00000680749596, 154.9765625 -171.00005 M154.9765625 -171.00005 C40.673636523623614 -171.00005, -73.62928945275277 -171.00005, -154.9765625 -171.00005 M154.9765625 -171.00005 C31.321078443240793 -171.00005, -92.33440561351841 -171.00005, -154.9765625 -171.00005" stroke="#B75C75" stroke-width="1.3" fill="none" stroke-dasharray="0 0"/></g></g></g></g></g><defs><filter id="my-svg-drop-shadow" height="130%" width="130%"><feDropShadow dx="4" dy="4" stdDeviation="0" flood-opacity="0.06" flood-color="#000000"/></filter></defs><defs><filter id="my-svg-drop-shadow-small" height="150%" width="150%"><feDropShadow dx="2" dy="2" stdDeviation="0" flood-opacity="0.06" flood-color="#000000"/></filter></defs><linearGradient id="my-svg-gradient" gradientUnits="objectBoundingBox" x1="0%" y1="0%" x2="100%" y2="0%"><stop offset="0%" stop-color="#B75C75" stop-opacity="1"/><stop offset="100%" stop-color="hsl(137.1428571429, 0%, 84.3137254902%)" stop-opacity="1"/></linearGradient></svg>