<svg xmlns="http://www.w3.org/2000/svg" xmlns:xlink="http://www.w3.org/1999/xlink" contentStyleType="text/css" data-diagram-type="DESCRIPTION" height="855px" preserveAspectRatio="none" style="width:448px;height:855px;background:#FFFFFF;" version="1.1" viewBox="0 0 448 855" width="448px" zoomAndPan="magnify"><?plantuml 1.2026.4?><defs/><g><!--cluster BellaApp Mobile--><g class="cluster" data-qualified-name="BellaApp Mobile" data-source-line="28" id="ent0004"><rect fill="none" height="774" rx="6" ry="6" style="stroke:#181818;stroke-width:1;" width="187" x="247" y="7"/><text fill="#000000" font-family="Arial" font-size="14" font-weight="700" lengthAdjust="spacing" textLength="108.8965" x="286.0518" y="22.1318">BellaApp Mobile</text></g><!--entity UC1--><g class="entity" data-qualified-name="BellaApp Mobile.UC1" data-source-line="29" id="ent0005"><ellipse cx="340.4147" cy="273.8835" fill="#F8E8ED" rx="51.4147" ry="14.3835" style="stroke:#B75C75;stroke-width:0.5;"/><text fill="#000000" font-family="Arial" font-size="14" lengthAdjust="spacing" textLength="68.4688" x="306.1803" y="278.4328">Criar conta</text></g><!--entity UC2--><g class="entity" data-qualified-name="BellaApp Mobile.UC2" data-source-line="30" id="ent0006"><ellipse cx="340.4578" cy="209.8835" fill="#F8E8ED" rx="29.9578" ry="14.3835" style="stroke:#B75C75;stroke-width:0.5;"/><text fill="#000000" font-family="Arial" font-size="14" lengthAdjust="spacing" textLength="38.124" x="321.3957" y="214.4328">Entrar</text></g><!--entity UC3--><g class="entity" data-qualified-name="BellaApp Mobile.UC3" data-source-line="31" id="ent0007"><ellipse cx="340.5385" cy="683.1077" fill="#F8E8ED" rx="71.0385" ry="16.6077" style="stroke:#B75C75;stroke-width:0.5;"/><text fill="#000000" font-family="Arial" font-size="14" lengthAdjust="spacing" textLength="109.7168" x="285.6801" y="687.657">Restaurar sess&#227;o</text></g><!--entity UC4--><g class="entity" data-qualified-name="BellaApp Mobile.UC4" data-source-line="32" id="ent0008"><ellipse cx="340.6404" cy="597.9281" fill="#F8E8ED" rx="67.6404" ry="15.9281" style="stroke:#B75C75;stroke-width:0.5;"/><text fill="#000000" font-family="Arial" font-size="14" lengthAdjust="spacing" textLength="101.165" x="290.0579" y="602.4774">Renovar sess&#227;o</text></g><!--entity UC5--><g class="entity" data-qualified-name="BellaApp Mobile.UC5" data-source-line="33" id="ent0009"><ellipse cx="340.6045" cy="467.8835" fill="#F8E8ED" rx="20.6045" ry="14.3835" style="stroke:#B75C75;stroke-width:0.5;"/><text fill="#000000" font-family="Arial" font-size="14" lengthAdjust="spacing" textLength="24.8965" x="328.1562" y="472.4328">Sair</text></g><!--entity UC6--><g class="entity" data-qualified-name="BellaApp Mobile.UC6" data-source-line="34" id="ent0010"><ellipse cx="340.4646" cy="59.8929" fill="#F8E8ED" rx="77.4646" ry="17.8929" style="stroke:#B75C75;stroke-width:0.5;"/><text fill="#000000" font-family="Arial" font-size="14" lengthAdjust="spacing" textLength="125.3027" x="277.8133" y="64.4422">Concluir onboarding</text></g><!--entity UC7--><g class="entity" data-qualified-name="BellaApp Mobile.UC7" data-source-line="35" id="ent0011"><ellipse cx="340.4347" cy="402.8869" fill="#F8E8ED" rx="64.9347" ry="15.3869" style="stroke:#B75C75;stroke-width:0.5;"/><text fill="#000000" font-family="Arial" font-size="14" lengthAdjust="spacing" textLength="94.1514" x="293.359" y="407.4363">Consultar perfil</text></g><!--entity UC8--><g class="entity" data-qualified-name="BellaApp Mobile.UC8" data-source-line="36" id="ent0012"><ellipse cx="340.5679" cy="531.8835" fill="#F8E8ED" rx="53.0679" ry="14.3835" style="stroke:#B75C75;stroke-width:0.5;"/><text fill="#000000" font-family="Arial" font-size="14" lengthAdjust="spacing" textLength="70.8066" x="305.1645" y="536.4328">Editar perfil</text></g><!--entity UC9--><g class="entity" data-qualified-name="BellaApp Mobile.UC9" data-source-line="37" id="ent0013"><ellipse cx="340.3928" cy="749.9786" fill="#F8E8ED" rx="62.8928" ry="14.9786" style="stroke:#B75C75;stroke-width:0.5;"/><text fill="#000000" font-family="Arial" font-size="14" lengthAdjust="spacing" textLength="88.71" x="296.0379" y="754.5279">Gerenciar foto</text></g><!--entity UC10--><g class="entity" data-qualified-name="BellaApp Mobile.UC10" data-source-line="38" id="ent0014"><ellipse cx="340.6707" cy="337.8835" fill="#F8E8ED" rx="59.6707" ry="14.3835" style="stroke:#B75C75;stroke-width:0.5;"/><text fill="#000000" font-family="Arial" font-size="14" lengthAdjust="spacing" textLength="80.1445" x="300.5985" y="342.4328">Excluir conta</text></g><!--entity UC11--><g class="entity" data-qualified-name="BellaApp Mobile.UC11" data-source-line="39" id="ent0015"><ellipse cx="340.2554" cy="127.7511" fill="#F8E8ED" rx="61.7554" ry="14.7511" style="stroke:#B75C75;stroke-width:0.5;"/><text fill="#000000" font-family="Arial" font-size="14" lengthAdjust="spacing" textLength="85.6133" x="297.4487" y="132.3004">Validar dados</text></g><!--entity Admin--><g class="entity" data-qualified-name="Admin" data-source-line="24" id="ent0001"><ellipse cx="73.1826" cy="364.5" fill="#F8E8ED" rx="8" ry="8" style="stroke:#785663;stroke-width:0.5;"/><path d="M73.1826,372.5 L73.1826,399.5 M60.1826,380.5 L86.1826,380.5 M73.1826,399.5 L60.1826,414.5 M73.1826,399.5 L86.1826,414.5" fill="none" style="stroke:#785663;stroke-width:0.5;"/><text fill="#000000" font-family="Arial" font-size="14" lengthAdjust="spacing" textLength="86.3652" x="30" y="429.1318">Administrador</text></g><!--entity Prof--><g class="entity" data-qualified-name="Prof" data-source-line="25" id="ent0002"><ellipse cx="73.1826" cy="528.5" fill="#F8E8ED" rx="8" ry="8" style="stroke:#785663;stroke-width:0.5;"/><path d="M73.1826,536.5 L73.1826,563.5 M60.1826,544.5 L86.1826,544.5 M73.1826,563.5 L60.1826,578.5 M73.1826,563.5 L86.1826,578.5" fill="none" style="stroke:#785663;stroke-width:0.5;"/><text fill="#000000" font-family="Arial" font-size="14" lengthAdjust="spacing" textLength="72.3652" x="37" y="593.1318">Profissional</text></g><!--entity Galeria--><g class="entity" data-qualified-name="Galeria" data-source-line="26" id="ent0003"><ellipse cx="72.9238" cy="774.5" fill="#F8E8ED" rx="8" ry="8" style="stroke:#785663;stroke-width:0.5;"/><path d="M72.9238,782.5 L72.9238,809.5 M59.9238,790.5 L85.9238,790.5 M72.9238,809.5 L59.9238,824.5 M72.9238,809.5 L85.9238,824.5" fill="none" style="stroke:#785663;stroke-width:0.5;"/><text fill="#000000" font-family="Arial" font-size="14" lengthAdjust="spacing" textLength="133.8477" x="6" y="839.1318">Galeria do dispositivo</text></g><!--link Admin to UC1--><g class="link" data-entity-1="ent0001" data-entity-2="ent0005" data-link-type="dependency" data-source-line="42" id="lnk16"><path d="M109.56,355.67 C126.42,339.62 147.73,322.14 170,311 C208.12,291.93 250.9206,283.2758 286.0206,278.7758" fill="none" id="Admin-to-UC1" style="stroke:#785663;stroke-width:1;"/><polygon fill="#785663" points="290.98,278.14,281.5444,275.317,286.0206,278.7758,282.5617,283.252,290.98,278.14" style="stroke:#785663;stroke-width:1;stroke-linejoin:miter;stroke-miterlimit:10;"/></g><!--link Admin to UC2--><g class="link" data-entity-1="ent0001" data-entity-2="ent0006" data-link-type="dependency" data-source-line="43" id="lnk17"><path d="M75.8,355.6 C80.81,297.91 99.65,190.48 170,142 C192.32,126.62 208.27,127.23 231,142 C238.34,146.77 232.95,153.68 239,160 C259.76,181.68 287.1685,193.7831 309.4885,201.2531" fill="none" id="Admin-to-UC2" style="stroke:#785663;stroke-width:1;"/><polygon fill="#785663" points="314.23,202.84,306.9648,196.1904,309.4885,201.2531,304.4258,203.7768,314.23,202.84" style="stroke:#785663;stroke-width:1;stroke-linejoin:miter;stroke-miterlimit:10;"/></g><!--link Admin to UC3--><g class="link" data-entity-1="ent0001" data-entity-2="ent0007" data-link-type="dependency" data-source-line="44" id="lnk18"><path d="M97.59,432.48 C134.26,491.46 204.32,600.58 239,631 C257.61,647.32 277.6695,658.1652 297.8895,667.0152" fill="none" id="Admin-to-UC3" style="stroke:#785663;stroke-width:1;"/><polygon fill="#785663" points="302.47,669.02,295.829,661.747,297.8895,667.0152,292.6213,669.0757,302.47,669.02" style="stroke:#785663;stroke-width:1;stroke-linejoin:miter;stroke-miterlimit:10;"/></g><!--link Admin to UC5--><g class="link" data-entity-1="ent0001" data-entity-2="ent0009" data-link-type="dependency" data-source-line="45" id="lnk19"><path d="M116.07,405.73 C174.85,422.11 274.2434,449.8182 316.3134,461.5382" fill="none" id="Admin-to-UC5" style="stroke:#785663;stroke-width:1;"/><polygon fill="#785663" points="321.13,462.88,313.5336,456.6115,316.3134,461.5382,311.3867,464.318,321.13,462.88" style="stroke:#785663;stroke-width:1;stroke-linejoin:miter;stroke-miterlimit:10;"/></g><!--link Admin to UC6--><g class="link" data-entity-1="ent0001" data-entity-2="ent0010" data-link-type="dependency" data-source-line="46" id="lnk20"><path d="M76.17,355.67 C81.68,295.14 101.15,177.5 170,111 C196.19,85.7 229.5502,73.8456 263.0902,67.3856" fill="none" id="Admin-to-UC6" style="stroke:#785663;stroke-width:1;"/><polygon fill="#785663" points="268,66.44,258.4059,64.2144,263.0902,67.3856,259.9189,72.07,268,66.44" style="stroke:#785663;stroke-width:1;stroke-linejoin:miter;stroke-miterlimit:10;"/></g><!--link Admin to UC7--><g class="link" data-entity-1="ent0001" data-entity-2="ent0011" data-link-type="dependency" data-source-line="47" id="lnk21"><path d="M116.07,395.43 C159.13,396.89 221.5829,399.0005 271.1129,400.6805" fill="none" id="Admin-to-UC7" style="stroke:#785663;stroke-width:1;"/><polygon fill="#785663" points="276.11,400.85,267.2508,396.5472,271.1129,400.6805,266.9796,404.5426,276.11,400.85" style="stroke:#785663;stroke-width:1;stroke-linejoin:miter;stroke-miterlimit:10;"/></g><!--link Admin to UC8--><g class="link" data-entity-1="ent0001" data-entity-2="ent0012" data-link-type="dependency" data-source-line="48" id="lnk22"><path d="M116.31,425.61 C148.62,448.63 194.94,479.28 239,500 C258.72,509.27 277.0116,515.4691 296.0916,520.9091" fill="none" id="Admin-to-UC8" style="stroke:#785663;stroke-width:1;"/><polygon fill="#785663" points="300.9,522.28,293.3417,515.9656,296.0916,520.9091,291.1482,523.659,300.9,522.28" style="stroke:#785663;stroke-width:1;stroke-linejoin:miter;stroke-miterlimit:10;"/></g><!--link Admin to UC9--><g class="link" data-entity-1="ent0001" data-entity-2="ent0013" data-link-type="dependency" data-source-line="49" id="lnk23"><path d="M101.61,432.4 C114.86,452.35 129.99,477.61 140,502 C162.18,556.06 143.89,577.73 170,630 C188.89,667.83 206.86,668.29 231,703 C235.09,708.88 233.45,712.47 239,717 C253.3,728.67 267.0513,734.8901 284.3213,739.8101" fill="none" id="Admin-to-UC9" style="stroke:#785663;stroke-width:1;"/><polygon fill="#785663" points="289.13,741.18,281.5703,734.8672,284.3213,739.8101,279.3785,742.5611,289.13,741.18" style="stroke:#785663;stroke-width:1;stroke-linejoin:miter;stroke-miterlimit:10;"/></g><!--link Admin to UC10--><g class="link" data-entity-1="ent0001" data-entity-2="ent0014" data-link-type="dependency" data-source-line="50" id="lnk24"><path d="M102.83,355.67 C119.93,336.21 143.44,314.5 170,304 C195.21,294.03 204.2,299.9 231,304 C234.77,304.58 268.748,315.3159 298.868,324.9559" fill="none" id="Admin-to-UC10" style="stroke:#785663;stroke-width:1;"/><polygon fill="#785663" points="303.63,326.48,296.2776,319.927,298.868,324.9559,293.839,327.5462,303.63,326.48" style="stroke:#785663;stroke-width:1;stroke-linejoin:miter;stroke-miterlimit:10;"/></g><!--link Prof to UC2--><g class="link" data-entity-1="ent0002" data-entity-2="ent0006" data-link-type="dependency" data-source-line="52" id="lnk25"><path d="M101.54,519.82 C114.93,499.63 130.21,473.92 140,449 C164.06,387.75 137.22,361.06 170,304 C190.54,268.25 203.22,262.49 239,242 C262.04,228.8 286.351,221.4272 307.331,216.5272" fill="none" id="Prof-to-UC2" style="stroke:#785663;stroke-width:1;"/><polygon fill="#785663" points="312.2,215.39,302.5261,213.5417,307.331,216.5272,304.3456,221.3321,312.2,215.39" style="stroke:#785663;stroke-width:1;stroke-linejoin:miter;stroke-miterlimit:10;"/></g><!--link Prof to UC3--><g class="link" data-entity-1="ent0002" data-entity-2="ent0007" data-link-type="dependency" data-source-line="53" id="lnk26"><path d="M109.01,575.39 C127.16,584.34 149.72,595.37 170,605 C217.55,627.58 268.4763,650.855 302.6563,666.355" fill="none" id="Prof-to-UC3" style="stroke:#785663;stroke-width:1;"/><polygon fill="#785663" points="307.21,668.42,300.6654,661.0601,302.6563,666.355,297.3614,668.3459,307.21,668.42" style="stroke:#785663;stroke-width:1;stroke-linejoin:miter;stroke-miterlimit:10;"/></g><!--link Prof to UC5--><g class="link" data-entity-1="ent0002" data-entity-2="ent0009" data-link-type="dependency" data-source-line="54" id="lnk27"><path d="M109.3,545.25 C142.64,533.29 194.08,515.04 239,500 C267.65,490.41 296.3454,481.3742 316.5154,475.1042" fill="none" id="Prof-to-UC5" style="stroke:#785663;stroke-width:1;"/><polygon fill="#785663" points="321.29,473.62,311.5083,472.4719,316.5154,475.1042,313.8831,480.1113,321.29,473.62" style="stroke:#785663;stroke-width:1;stroke-linejoin:miter;stroke-miterlimit:10;"/></g><!--link Prof to UC7--><g class="link" data-entity-1="ent0002" data-entity-2="ent0011" data-link-type="dependency" data-source-line="55" id="lnk28"><path d="M109.12,526.8 C141.1,499.71 190.58,461.02 239,436 C256.62,426.89 272.4706,421.0358 290.4506,415.6458" fill="none" id="Prof-to-UC7" style="stroke:#785663;stroke-width:1;"/><polygon fill="#785663" points="295.24,414.21,285.4704,412.9628,290.4506,415.6458,287.7676,420.6259,295.24,414.21" style="stroke:#785663;stroke-width:1;stroke-linejoin:miter;stroke-miterlimit:10;"/></g><!--link Prof to UC8--><g class="link" data-entity-1="ent0002" data-entity-2="ent0012" data-link-type="dependency" data-source-line="56" id="lnk29"><path d="M109.19,577.12 C143.2,592.73 194.74,608.55 231,584 C238.93,578.63 231.99,570.52 239,564 C253.55,550.47 268.962,543.843 287.482,539.333" fill="none" id="Prof-to-UC8" style="stroke:#785663;stroke-width:1;"/><polygon fill="#785663" points="292.34,538.15,282.6491,536.393,287.482,539.333,284.542,544.1659,292.34,538.15" style="stroke:#785663;stroke-width:1;stroke-linejoin:miter;stroke-miterlimit:10;"/></g><!--link Prof to UC9--><g class="link" data-entity-1="ent0002" data-entity-2="ent0013" data-link-type="dependency" data-source-line="57" id="lnk30"><path d="M104.65,596.15 C135.24,631.94 185.33,684.67 239,717 C255.83,727.14 271.3482,733.1763 289.2982,738.3863" fill="none" id="Prof-to-UC9" style="stroke:#785663;stroke-width:1;"/><polygon fill="#785663" points="294.1,739.78,286.5717,733.4298,289.2982,738.3863,284.3417,741.1127,294.1,739.78" style="stroke:#785663;stroke-width:1;stroke-linejoin:miter;stroke-miterlimit:10;"/></g><!--link Prof to UC10--><g class="link" data-entity-1="ent0002" data-entity-2="ent0014" data-link-type="dependency" data-source-line="58" id="lnk31"><path d="M96.75,519.66 C124.61,476.24 175.98,406.76 239,370 C256.24,359.94 272.2031,353.9907 290.3831,348.9307" fill="none" id="Prof-to-UC10" style="stroke:#785663;stroke-width:1;"/><polygon fill="#785663" points="295.2,347.59,285.457,346.1497,290.3831,348.9307,287.6021,353.8567,295.2,347.59" style="stroke:#785663;stroke-width:1;stroke-linejoin:miter;stroke-miterlimit:10;"/></g><!--link UC1 to UC11--><g class="link" data-entity-1="ent0005" data-entity-2="ent0015" data-link-type="dependency" data-source-line="60" id="lnk32"><path d="M296.72,266.22 C277.8,261.39 256.12,253.79 239,242 C206.48,219.61 168.81,197.21 193,166 C212.92,140.29 242.7769,131.0281 273.5869,127.8181" fill="none" id="UC1-to-UC11" style="stroke:#785663;stroke-width:1;stroke-dasharray:7,7;"/><polygon fill="#785663" points="278.56,127.3,269.1939,124.2542,273.5869,127.8181,270.023,132.2111,278.56,127.3" style="stroke:#785663;stroke-width:1;stroke-linejoin:miter;stroke-miterlimit:10;"/><text fill="#000000" font-family="Arial" font-size="14" lengthAdjust="spacing" textLength="59.9375" x="171" y="180.1318">&#171;include&#187;</text></g><!--link UC2 to UC11--><g class="link" data-entity-1="ent0006" data-entity-2="ent0015" data-link-type="dependency" data-source-line="61" id="lnk33"><path d="M340.5,195.34 C340.5,180.6 340.5,162.98 340.5,148.09" fill="none" id="UC2-to-UC11" style="stroke:#785663;stroke-width:1;stroke-dasharray:7,7;"/><polygon fill="#785663" points="340.5,143.09,336.5,152.09,340.5,148.09,344.5,152.09,340.5,143.09" style="stroke:#785663;stroke-width:1;stroke-linejoin:miter;stroke-miterlimit:10;"/><text fill="#000000" font-family="Arial" font-size="14" lengthAdjust="spacing" textLength="59.9375" x="299" y="174.3818">&#171;include&#187;</text></g><!--link UC8 to UC11--><g class="link" data-entity-1="ent0012" data-entity-2="ent0015" data-link-type="dependency" data-source-line="62" id="lnk34"><path d="M291.28,526.59 C272.67,522.19 252.69,514.26 239,500 C179.44,437.94 178.84,396.85 193,312 C203.36,249.89 197.39,225.26 239,178 C255.16,159.64 274.9292,149.0778 295.7792,141.2478" fill="none" id="UC8-to-UC11" style="stroke:#785663;stroke-width:1;stroke-dasharray:7,7;"/><polygon fill="#785663" points="300.46,139.49,290.6283,138.9094,295.7792,141.2478,293.4408,146.3987,300.46,139.49" style="stroke:#785663;stroke-width:1;stroke-linejoin:miter;stroke-miterlimit:10;"/><text fill="#000000" font-family="Arial" font-size="14" lengthAdjust="spacing" textLength="59.9375" x="171" y="326.1318">&#171;include&#187;</text></g><!--link UC10 to UC11--><g class="link" data-entity-1="ent0014" data-entity-2="ent0015" data-link-type="dependency" data-source-line="63" id="lnk35"><path d="M287.67,331.31 C270.24,326.71 252.01,318.99 239,306 C185.73,252.82 142.54,198.85 193,143 C217.5,115.88 255.2444,113.6447 288.4144,117.5547" fill="none" id="UC10-to-UC11" style="stroke:#785663;stroke-width:1;stroke-dasharray:7,7;"/><polygon fill="#785663" points="293.38,118.14,284.9102,113.1139,288.4144,117.5547,283.9736,121.0589,293.38,118.14" style="stroke:#785663;stroke-width:1;stroke-linejoin:miter;stroke-miterlimit:10;"/><text fill="#000000" font-family="Arial" font-size="14" lengthAdjust="spacing" textLength="59.9375" x="171" y="157.1318">&#171;include&#187;</text></g><!--link UC3 to UC4--><g class="link" data-entity-1="ent0007" data-entity-2="ent0008" data-link-type="dependency" data-source-line="64" id="lnk36"><path d="M340.5,666.21 C340.5,651.11 340.5,634.09 340.5,619.18" fill="none" id="UC3-to-UC4" style="stroke:#785663;stroke-width:1;stroke-dasharray:7,7;"/><polygon fill="#785663" points="340.5,614.18,336.5,623.18,340.5,619.18,344.5,623.18,340.5,614.18" style="stroke:#785663;stroke-width:1;stroke-linejoin:miter;stroke-miterlimit:10;"/><text fill="#000000" font-family="Arial" font-size="14" lengthAdjust="spacing" textLength="59.9375" x="299" y="645.3818">&#171;include&#187;</text></g><!--link Galeria to UC9--><g class="link" data-entity-1="ent0003" data-entity-2="ent0013" data-link-type="dependency" data-source-line="65" id="lnk37"><path d="M140.08,796.94 C168.26,793.36 201.41,788.4 231,782 C255.38,776.73 277.5045,770.3233 298.4145,763.6833" fill="none" id="Galeria-to-UC9" style="stroke:#785663;stroke-width:1;"/><polygon fill="#785663" points="303.18,762.17,293.3915,761.0815,298.4145,763.6833,295.8127,768.7063,303.18,762.17" style="stroke:#785663;stroke-width:1;stroke-linejoin:miter;stroke-miterlimit:10;"/></g><?plantuml-src ZPFTZjem48Nl_HGZzdehmbz2jK8AaEnDMrL5xRs97HXXxDGsIxTLdwQFqXTR4n9amyBk1P5EpiUPoNXiDYWhgkaMbhJOhBJQIJPJGcdOhz5oOau-uoNT2PihQR_GBOTK8nMl-mlypI4QUAPPKwRsA5TGKc7ys5HhjJzMl8kJuMZKzqnQMAMdIZEkRoDdlT_bIPPaSm_R6LvGmzyF-aMdyN0M3yEY-8Js-Usu4_ckl3dIhPBi8ZQRvuCil_67O4JJSPR47koU5WkigBHlD-p3Dtis_EUEou9_mjBzvDd4PcawZJnQAllAyFDyd6KULPk5qf9hY7g425vQi0eqhjOM66hklbl9eDrYGrTyOPy5XuDDvKfmGkgrW4xAjYZHMEtMJtU06gZVjFPNhKeqnaLIKRk75wtvI0LtEmvCkSgcKWRTp5MDDHOXfuhGcN8XQ5fLy5ajKV0E_27GRXDqPWxNKBZBGUk4xxF8jpFfMjIDq_ETRznOkdEc6xWn__-f1kg7a5HF5yZ0HnOKs_nXq9YIXTYX1YMNYchcxcY3ZSumuswtgr5nNQ9ec3Zu28ONGE83ZroxZJaCebIsxN8SHFmwDXCCgkiJFwX0vXAOEr7J4X7vIqXzid1_Fwc7wwjUeFg16WPg5AWuK4cWnc6zBY67tJaLz4JV5qDVnBv8V37snI7SFU53BIBu20yFU3WrnYSJv_IkEibL9-fUjVf7Pt1cjDUXQV05?></g></svg>